<svg width="119" height="39" viewBox="0 0 119 39" fill="none" xmlns="http://www.w3.org/2000/svg">
<rect y="0.537109" width="118.695" height="37.9823" rx="4.92863" fill="white"/>
<path d="M100.644 22.806V14.0938H98.2194L96.7538 15.6032V16.8213H98.2194V19.7077V22.806H96.967V25.2953H101.897V22.806H100.644Z" fill="black"/>
<path d="M92.0373 13.7754C89.7457 13.7754 87.8538 15.682 87.8538 18.0389C87.8538 20.3957 89.719 22.3023 92.0373 22.3023H92.1439L90.5984 25.2947H93.0233L95.4748 20.5016L95.6347 20.1838C96.0077 19.5483 96.2209 18.8333 96.2209 18.0389C96.2209 15.682 94.3556 13.7754 92.0373 13.7754M92.0373 20.1044C90.9181 20.1044 90.0122 19.1775 90.0122 18.0389C90.0122 16.9002 90.9181 15.9733 92.0373 15.9733C93.1565 15.9733 94.0625 16.9002 94.0625 18.0389C94.0625 19.1775 93.1565 20.1044 92.0373 20.1044Z" fill="black"/>
<path d="M107.546 19.5458H105.068C105.068 17.6392 104.561 15.812 103.629 14.2231L105.761 12.9785C106.933 14.9381 107.546 17.2155 107.546 19.5458" fill="#0078BF"/>
<path d="M103.629 14.2258C103.016 13.193 102.243 12.2926 101.31 11.5512L102.856 9.64453C104.002 10.5714 104.988 11.7101 105.734 12.9812L103.602 14.2258H103.629Z" fill="#56AF31"/>
<path d="M101.337 11.5511C99.5783 10.1211 97.4199 9.37962 95.1016 9.37962C94.089 9.37962 93.1031 9.51203 92.1704 9.80332L91.451 7.47298C92.6235 7.10225 93.8492 6.94336 95.1016 6.94336C97.9795 6.94336 100.671 7.89668 102.882 9.67092L101.337 11.5776V11.5511Z" fill="#F5A053"/>
<path d="M89.506 11.0741L88.1204 9.06152C89.1329 8.37302 90.2521 7.84339 91.4512 7.47266L92.1707 9.803C91.238 10.0943 90.332 10.518 89.506 11.0741" fill="#FFF265"/>
<path d="M86.6014 14.1979L84.4697 12.9533C85.4023 11.4174 86.6547 10.0668 88.1203 9.06055L89.5059 11.0731C88.3068 11.894 87.3209 12.9533 86.5748 14.1979" fill="#81CBD4"/>
<path d="M85.1359 19.548H82.6577C82.6577 17.1912 83.2706 14.9138 84.4697 12.9277L86.6015 14.1723C85.6422 15.7612 85.1359 17.6149 85.1359 19.548" fill="#5B358C"/>
<path d="M95.1018 32.2077C88.1203 32.2077 82.6577 26.6466 82.6577 19.5762H85.1359C85.1359 25.2961 89.506 29.7714 95.1018 29.7714C100.698 29.7714 105.068 25.2961 105.068 19.5762H107.546C107.546 26.6731 102.083 32.2077 95.1018 32.2077Z" fill="#E73137"/>
<path d="M38.5307 8H33.4146V31.171H38.5307V8Z" fill="black"/>
<path d="M18.1725 8C14.3353 8 11.191 11.1777 11.191 15.0969C11.191 16.7917 11.7772 18.3541 12.7632 19.5723C11.7772 20.7904 11.0844 22.3528 11.0844 24.074C11.0844 27.9933 14.2554 31.171 18.1192 31.171H28.8312V8H18.1725ZM18.1725 13.2168H23.715V17.083H18.1725C17.1599 17.083 16.3338 16.1827 16.3338 15.1499C16.3338 14.1171 17.1599 13.2168 18.1725 13.2168ZM23.715 25.9542H18.1192C17.1066 25.9542 16.2806 25.0538 16.2806 24.0211C16.2806 22.9883 17.1066 22.088 18.1192 22.088H23.715V25.9542Z" fill="black"/>
<path d="M76.6624 31.171H81.7786L76.5025 8H66.5366L61.2872 31.171H66.4034L67.7357 25.2657H75.3034L76.6358 31.171H76.6624ZM68.9082 20.1548L70.4803 13.2168H72.5854L74.1576 20.1548H68.9082Z" fill="black"/>
<path d="M60.7275 16.6858C60.7275 11.8927 56.917 8 52.2005 8H43.0873V31.171H48.2301V25.2657H52.3337L53.6927 31.171H58.8089L57.1302 23.7298C59.3152 22.1939 60.7542 19.6252 60.7542 16.6858M48.2568 13.2168H52.2272C53.1332 13.2168 53.9859 13.561 54.652 14.2231C55.2915 14.8851 55.6646 15.759 55.6646 16.6858C55.6646 17.851 55.1317 18.6189 54.7053 19.0426C54.0658 19.6782 53.1864 20.0489 52.2538 20.0489H48.2834V13.2168H48.2568Z" fill="black"/>
</svg>
