<svg width="120" height="39" viewBox="0 0 120 39" fill="none" xmlns="http://www.w3.org/2000/svg">
<rect x="0.358551" y="0.271484" width="118.695" height="38.3333" rx="4.9282" fill="white"/>
<path d="M53.3437 4.1265V5.95771C53.3437 6.23239 53.2218 6.38499 52.9169 6.38499H51.0876C50.8132 6.38499 50.6608 6.23239 50.6608 5.95771V4.1265C50.6608 3.85182 50.8132 3.69922 51.0876 3.69922H52.9169C53.1913 3.69922 53.3437 3.8213 53.3437 4.09598" fill="#003A78"/>
<path d="M38.0997 7.33125H36.6972C36.2704 7.33125 35.9655 7.42281 35.7826 7.60593C35.5996 7.78905 35.5082 8.12477 35.5082 8.55205V14.9308C35.5082 15.358 35.5996 15.6938 35.7826 15.8769C35.9655 16.06 36.2704 16.1516 36.6972 16.1516H38.0997C38.557 16.1516 38.8619 16.06 39.0448 15.8769C39.2277 15.6938 39.3192 15.3886 39.3192 14.9308V14.0762C39.3192 13.771 39.4716 13.6184 39.746 13.6184H41.5143C41.8192 13.6184 41.9717 13.771 41.9717 14.0762V15.0528C41.9717 16.121 41.6668 16.9756 41.057 17.586C40.4472 18.1659 39.5936 18.4711 38.5265 18.4711H36.2399C35.1423 18.4711 34.2887 18.1964 33.6789 17.586C33.0691 17.0061 32.7947 16.1516 32.7947 15.0528V8.42997C32.7947 7.33125 33.0996 6.47669 33.6789 5.8968C34.2887 5.31692 35.1118 5.01172 36.2399 5.01172H38.5265C39.6241 5.01172 40.4472 5.31692 41.057 5.8968C41.6668 6.50721 41.9717 7.33125 41.9717 8.42997V9.40662C41.9717 9.71182 41.8192 9.86442 41.5143 9.86442H39.746C39.4411 9.86442 39.3192 9.71182 39.3192 9.40662V8.55205C39.3192 8.09425 39.2277 7.78905 39.0448 7.60593C38.8619 7.42281 38.5265 7.33125 38.0997 7.33125" fill="#003A78"/>
<path d="M57.612 15.9055C57.795 16.0886 58.0998 16.1801 58.5572 16.1801H61.2401C61.545 16.1801 61.667 16.3327 61.667 16.6074V18.0419C61.667 18.0419 61.667 18.286 61.5755 18.3776C61.5145 18.4386 61.3926 18.4692 61.2401 18.4692H58.1303C57.0328 18.4692 56.1791 18.1945 55.5998 17.5841C54.9901 17.0042 54.7157 16.1496 54.7157 15.0509V11.2054C54.7157 10.1066 55.0205 9.25208 55.5998 8.67219C56.2096 8.09231 57.0632 7.78711 58.1303 7.78711H61.2401C61.545 7.78711 61.667 7.93971 61.667 8.21439V9.67936C61.667 9.67936 61.667 9.92352 61.5755 9.98456C61.5145 10.0456 61.3926 10.0761 61.2401 10.0761H58.5572C58.1303 10.0761 57.8254 10.1677 57.612 10.3508C57.4291 10.5339 57.3376 10.8696 57.3376 11.2969V14.8983C57.3376 15.3256 57.4291 15.6613 57.612 15.8444" fill="#003A78"/>
<path d="M49.3498 8.24491V9.70988C49.3498 9.86248 49.3193 9.98456 49.2583 10.0456C49.1973 10.1066 49.1364 10.1372 49.0144 10.1372H47.49C46.5144 10.1372 46.0571 10.6865 46.0571 11.7547V18.0419C46.0571 18.3471 45.9046 18.4692 45.6302 18.4692H43.8619C43.557 18.4692 43.4351 18.3166 43.4351 18.0419V8.24491C43.4351 7.97023 43.5875 7.81763 43.8619 7.81763H45.6302C45.9351 7.81763 46.0571 7.97023 46.0571 8.24491V8.94687H46.1485C46.301 8.58063 46.5754 8.27543 46.9717 8.09231C47.3681 7.87867 47.7644 7.78711 48.1912 7.78711H48.9534C49.2278 7.78711 49.3803 7.93971 49.3803 8.21439" fill="#003A78"/>
<path d="M87.7343 7.81858C88.0392 7.81858 88.1611 7.97118 88.1611 8.24587V9.71083C88.1611 9.71083 88.1306 9.95499 88.0696 10.016C88.0087 10.0771 87.8867 10.1076 87.7343 10.1076H86.0879C85.9355 10.1076 85.844 10.1686 85.844 10.3212V14.9603C85.844 15.3876 85.9355 15.6928 86.1489 15.8759C86.3318 16.059 86.6672 16.1506 87.094 16.1506H87.9477C88.2526 16.1506 88.3745 16.3032 88.3745 16.5779V18.0123C88.3745 18.0123 88.3745 18.2565 88.2831 18.348C88.2221 18.4091 88.1001 18.4396 87.9477 18.4396H86.6672C85.5696 18.4396 84.7159 18.1649 84.1062 17.5545C83.4964 16.9746 83.1915 16.1201 83.1915 15.0519V10.2907C83.1915 10.2907 83.1001 10.0771 82.9476 10.0771H82.1245C81.9415 10.0771 81.8501 10.0771 81.7891 9.98551C81.7281 9.92447 81.6976 9.83291 81.6976 9.64979V8.18482C81.6976 7.87962 81.8501 7.75754 82.1245 7.75754H82.9476C82.9476 7.75754 83.1915 7.66598 83.1915 7.5439V5.56009C83.1915 5.25489 83.344 5.13281 83.6489 5.13281H85.3867C85.6916 5.13281 85.8135 5.28541 85.8135 5.56009V7.5439C85.8135 7.5439 85.905 7.75754 86.0574 7.75754H87.7038L87.7343 7.81858Z" fill="#003A78"/>
<path d="M50.6913 8.24564C50.6913 7.97096 50.8437 7.81836 51.1181 7.81836H52.9169C53.2218 7.81836 53.3437 7.97096 53.3437 8.24564V18.0426C53.3437 18.2257 53.3437 18.3478 53.2523 18.4088C53.1913 18.4699 53.0693 18.5004 52.9169 18.5004H51.1181C50.8132 18.5004 50.6913 18.3478 50.6913 18.0731V8.24564Z" fill="#003A78"/>
<path d="M80.6915 13.8911C80.6915 14.1963 80.5391 14.3184 80.2647 14.3184H75.0207C74.8683 14.3184 74.7768 14.41 74.7768 14.5626V15.0204C74.7768 15.4477 74.8683 15.7529 75.0817 15.936C75.2646 16.1191 75.5695 16.2107 76.0268 16.2107H80.2342C80.5391 16.2107 80.661 16.3633 80.661 16.6685V18.0419C80.661 18.0419 80.6305 18.286 80.5696 18.3776C80.5086 18.4386 80.3866 18.4692 80.2342 18.4692H75.6C74.5024 18.4692 73.6488 18.1945 73.039 17.5841C72.4292 17.0042 72.1548 16.1496 72.1548 15.0509V11.2054C72.1548 10.1066 72.4597 9.25208 73.039 8.67219C73.6488 8.09231 74.5024 7.78711 75.6 7.78711H77.2464C78.3439 7.78711 79.1976 8.09231 79.8074 8.67219C80.4171 9.25208 80.6915 10.1066 80.6915 11.2054V13.8606V13.8911ZM76.85 10.1066H75.9659C75.5085 10.1066 75.2037 10.1982 75.0207 10.3813C74.8378 10.5644 74.7463 10.8696 74.7463 11.3274V12.3346C74.7463 12.4872 74.8378 12.5788 74.9902 12.5788H77.8256C77.8256 12.5788 78.039 12.4872 78.039 12.3346V11.3274C78.039 10.8696 77.9476 10.5644 77.7647 10.3813C77.5817 10.1982 77.2768 10.1066 76.8195 10.1066" fill="#003A78"/>
<path d="M65.6609 18.0432C65.6609 18.3484 65.5084 18.4705 65.234 18.4705H63.4657C63.1609 18.4705 63.0389 18.3179 63.0389 18.0432V4.21757C63.0389 3.91237 63.1913 3.75977 63.4657 3.75977H65.234C65.5389 3.75977 65.6609 3.91237 65.6609 4.21757V18.0432ZM68.4048 8.24622C68.5573 7.97154 68.8012 7.81894 69.106 7.81894H71.1183C71.2707 7.81894 71.3926 7.87998 71.4536 7.97154C71.5146 8.0631 71.4536 8.18518 71.3926 8.33778L68.6182 12.9158V13.0074L71.5146 17.9516C71.5146 17.9516 71.6061 18.1958 71.5146 18.3179C71.4231 18.4094 71.3012 18.4705 71.1183 18.4705H69.3195C69.0755 18.4705 68.9231 18.4705 68.8012 18.3789C68.6792 18.3179 68.5877 18.1958 68.4658 18.0127L65.8133 13.3431C65.6914 13.1294 65.6914 12.8853 65.8133 12.6411L68.3133 8.18518L68.4048 8.24622Z" fill="#003A78"/>
<path d="M58.8316 23.3532C58.8316 23.2006 58.7401 23.1091 58.5877 23.1091H56.545C56.0877 23.1091 55.7523 23.2006 55.5694 23.4143C55.3864 23.6279 55.295 23.9331 55.295 24.3909V27.6261C55.295 28.0839 55.3864 28.4196 55.5694 28.6027C55.7523 28.7858 56.0877 28.8774 56.545 28.8774H57.3377C58.3438 28.8774 58.8316 28.328 58.8316 27.2598V23.3532ZM58.7401 30.0982C58.5877 30.495 58.3133 30.7696 57.8865 30.9833C57.4901 31.1969 57.0633 31.2885 56.606 31.2885H55.9047C54.7767 31.2885 53.9535 30.9833 53.3742 30.3729C52.795 29.7625 52.5206 28.8774 52.5206 27.7481V24.2689C52.5206 23.1091 52.8254 22.2545 53.4657 21.6441C54.0755 21.0337 54.9596 20.7285 56.1182 20.7285H61.1182C61.4536 20.7285 61.606 20.8811 61.606 21.1863V31.8989C61.606 33.0281 61.3011 33.8827 60.6609 34.4931C60.0206 35.1035 59.1365 35.4087 58.0389 35.4087H53.862C53.6791 35.4087 53.5572 35.4087 53.4962 35.3171C53.4352 35.2561 53.4047 35.134 53.4047 34.9814V33.4859C53.4047 33.1807 53.5572 33.0281 53.862 33.0281H57.5816C58.0389 33.0281 58.3743 32.9366 58.5877 32.7534C58.7706 32.5398 58.8621 32.2346 58.8621 31.7768V30.1287H58.7706L58.7401 30.0982Z" fill="#003A78"/>
<path d="M88.0087 31.8082H87.1246C85.9965 31.8082 85.1733 31.503 84.594 30.8926C84.0148 30.2822 83.7404 29.3971 83.7404 28.2678V24.2697C83.7404 23.1099 84.0148 22.2554 84.594 21.645C85.1733 21.0346 85.9965 20.7294 87.1246 20.7294H88.0087C88.466 20.7294 88.8929 20.8209 89.2892 21.004C89.6856 21.1872 89.96 21.4924 90.1429 21.8891H90.2343V16.9754C90.2343 16.6702 90.3868 16.5176 90.6917 16.5176H92.521C92.8258 16.5176 92.9783 16.6702 92.9783 16.9754V31.3504C92.9783 31.6556 92.8258 31.8082 92.521 31.8082H90.6917C90.3868 31.8082 90.2343 31.6556 90.2343 31.3504V30.6484H90.1429C89.9904 31.0452 89.716 31.3198 89.2892 31.5335C88.8929 31.7166 88.466 31.8387 88.0087 31.8387M90.2343 27.7795V24.7885C90.2343 23.6898 89.716 23.1404 88.7404 23.1404H87.7648C87.3075 23.1404 86.9721 23.232 86.7892 23.4456C86.6063 23.6593 86.5148 23.9645 86.5148 24.4223V28.1457C86.5148 28.6035 86.6063 28.9393 86.7892 29.1224C86.9721 29.3055 87.3075 29.4276 87.7648 29.4276H88.7404C89.7465 29.4276 90.2343 28.8782 90.2343 27.7795Z" fill="#003A78"/>
<path d="M77.3074 23.0786C76.85 23.0786 76.5147 23.1701 76.3317 23.3532C76.1488 23.5364 76.0573 23.8721 76.0573 24.3299V28.1449C76.0573 28.6027 76.1488 28.9384 76.3317 29.1216C76.5147 29.3047 76.85 29.3962 77.3074 29.3962H78.4049C78.8622 29.3962 79.1976 29.3047 79.3805 29.1216C79.5635 28.9384 79.6854 28.6027 79.6854 28.1449V24.3299C79.6854 23.8721 79.594 23.5364 79.3805 23.3532C79.1976 23.1701 78.8622 23.0786 78.4049 23.0786H77.3074M82.3989 24.2689V28.267C82.3989 29.3962 82.094 30.2813 81.4537 30.8917C80.8135 31.5021 79.9598 31.8073 78.8013 31.8073H76.8805C75.7525 31.8073 74.8378 31.5021 74.2281 30.8917C73.6183 30.2813 73.2829 29.3962 73.2829 28.267V24.2689C73.2829 23.1091 73.5878 22.2545 74.2281 21.6441C74.8378 21.0337 75.722 20.7285 76.8805 20.7285H78.8013C79.9293 20.7285 80.8135 21.0337 81.4537 21.6441C82.094 22.2545 82.3989 23.1396 82.3989 24.2689" fill="#003A78"/>
<path d="M66.9414 29.4268H68.039C68.4963 29.4268 68.8317 29.3352 69.0146 29.1521C69.1975 28.9689 69.3195 28.6332 69.3195 28.1754V24.3604C69.3195 23.9026 69.228 23.5669 69.0146 23.3838C68.8317 23.2006 68.4963 23.1091 68.039 23.1091H66.9414C66.4841 23.1091 66.1487 23.2006 65.9658 23.3838C65.7829 23.5669 65.6914 23.9026 65.6914 24.3604V28.1754C65.6914 28.6332 65.7829 28.9689 65.9658 29.1521C66.1487 29.3352 66.4841 29.4268 66.9414 29.4268ZM62.9475 24.2689C62.9475 23.1091 63.2524 22.2545 63.8926 21.6441C64.5024 21.0337 65.3865 20.7285 66.5451 20.7285H68.4658C69.5939 20.7285 70.478 21.0337 71.1183 21.6441C71.7585 22.2545 72.0634 23.1396 72.0634 24.2689V28.267C72.0634 29.3962 71.7585 30.2813 71.1183 30.8917C70.478 31.5021 69.6244 31.8073 68.4658 31.8073H66.5451C65.417 31.8073 64.5329 31.5021 63.8926 30.8917C63.2524 30.2813 62.9475 29.3962 62.9475 28.267V24.2689Z" fill="#003A78"/>
<path d="M38.7704 30.2496C38.7704 30.2496 38.8619 29.9749 38.9229 29.8528L43.7095 21.2462C43.8619 20.9715 44.0144 20.7884 44.1363 20.6663C44.2583 20.5747 44.4717 20.5137 44.7461 20.5137H47.4595C47.7339 20.5137 47.9473 20.6052 48.1303 20.7578C48.2827 20.9104 48.3742 21.1241 48.3742 21.3988V30.1886H50.112C50.4473 30.1886 50.5998 30.3412 50.5998 30.6464V32.2029C50.5998 32.5691 50.4473 32.7522 50.112 32.7522H48.3742V34.9802C48.3742 35.1633 48.3437 35.2854 48.2522 35.377C48.1912 35.438 48.0693 35.4685 47.8864 35.4685H45.9961C45.6607 35.4685 45.5083 35.3159 45.5083 34.9802V32.7522H38.7399V30.2191L38.7704 30.2496ZM45.2949 24.0235L42.0631 29.9749H45.2949V24.0235Z" fill="#003A78"/>
<path d="M21.4227 8.55059C22.1544 7.20771 23.4959 5.92586 23.7398 5.74274C23.9227 5.59014 23.9532 5.3765 23.9227 5.31546C23.8922 5.13234 23.4349 4.94922 22.7032 4.94922C19.1361 4.94922 16.1178 7.69603 16.1178 11.2974C16.1178 12.3656 16.3007 13.1897 16.697 14.0137C16.758 14.1358 16.8495 14.1663 16.9409 14.1663C17.0629 14.1663 17.1544 14.0747 17.1544 13.9527C17.2458 12.274 17.7946 10.2597 18.3739 9.25256C18.6788 8.76423 18.9532 8.27591 19.319 8.27591C19.4105 8.27591 19.6849 8.36747 19.6849 8.58111C19.6849 8.79475 19.441 9.161 19.1666 9.71036C18.6178 10.9922 18.3739 12.1214 18.2214 12.9455C18.0385 13.9527 17.9775 15.0209 18.069 15.8754C18.1605 17.2183 18.7397 17.9813 19.0751 17.7066C19.319 17.5235 18.9227 17.3099 19.0751 17.0962C19.0751 17.0352 19.1971 16.9436 19.319 16.9436C19.38 16.9436 19.5629 16.9436 19.6239 16.8826C19.7154 16.8215 19.6849 16.6384 19.6849 16.5469C19.5934 15.204 19.6849 14.3189 19.8373 13.5254C20.1117 11.6331 20.7824 9.89348 21.4837 8.55059" fill="#003A78"/>
<path d="M22.7032 13.5254C23.3434 10.2597 24.9898 8.06225 26.5751 6.90249C26.7886 6.74989 26.7276 6.4752 26.5447 6.3226C26.3008 6.10896 26.4837 5.80376 26.6666 5.74272C26.8191 5.68168 27.002 5.65116 27.0325 5.62064C27.063 5.62064 27.0934 5.52908 27.0934 5.46804C27.0934 5.34596 27.002 5.19336 26.6056 5.19336C26.3008 5.19336 25.9349 5.31544 25.8129 5.37648C22.8861 6.81093 20.6605 11.6941 20.6605 16.0585C20.6605 17.0657 20.7214 18.0729 21.1178 18.6833C21.2702 18.9579 21.4836 19.1411 21.6971 18.9579C21.7275 18.9274 21.8495 18.8053 21.6971 18.5612C21.5751 18.3781 21.6361 18.1339 21.6971 18.0423C21.941 17.7677 22.1239 17.9813 22.3678 17.7677C22.4897 17.6761 22.5507 17.493 22.5202 17.2488C22.4897 16.9741 22.3983 16.4553 22.4288 15.8144C22.4593 14.9903 22.5507 14.2273 22.7032 13.5254" fill="#003A78"/>
<path d="M28.313 7.72494C28.313 7.72494 28.4349 7.6639 28.5264 7.6639C28.6483 7.6639 28.8618 7.60286 28.8618 7.3587C28.8618 7.02298 28.252 7.0535 27.8861 7.23662C24.8983 8.70159 23.4349 13.4627 23.4654 15.9043C23.4654 16.8199 23.4654 18.1018 24.1666 18.6512C24.2581 18.7427 24.38 18.7427 24.4715 18.7122C24.6239 18.6512 24.6544 18.468 24.5934 18.3459C24.5325 18.2849 24.4715 18.1933 24.441 18.0407C24.441 17.8576 24.441 17.5829 24.7154 17.4914C25.1117 17.3693 25.5081 17.1862 25.9044 16.942C27.5508 15.9349 28.8618 14.0426 28.9837 11.8146C29.0447 10.4412 28.7703 9.22043 28.1605 8.27431C28.0691 8.15223 28.0996 7.90806 28.313 7.75546" fill="#003A78"/>
<path d="M29.0447 17.0355C29.0447 17.4017 28.7398 17.6764 28.374 17.6764C28.0081 17.6764 27.7032 17.4017 27.7032 17.0355C27.7032 16.6692 28.0081 16.3945 28.374 16.3945C28.7398 16.3945 29.0447 16.6692 29.0447 17.0355ZM27.8861 17.0355C27.8861 17.3407 28.0996 17.5543 28.4044 17.5543C28.7093 17.5543 28.8923 17.3101 28.8923 17.0355C28.8923 16.7608 28.6788 16.5166 28.374 16.5166C28.0691 16.5166 27.8861 16.7608 27.8861 17.0355ZM28.2825 17.3712H28.1301V16.7303C28.1301 16.7303 28.2825 16.7303 28.374 16.7303C28.4959 16.7303 28.5569 16.7303 28.5874 16.7913C28.6179 16.7913 28.6483 16.8829 28.6483 16.9134C28.6483 17.0049 28.5874 17.0355 28.5264 17.066C28.5264 17.066 28.6179 17.127 28.6483 17.2186C28.6483 17.3407 28.6788 17.3712 28.7093 17.3712H28.5569C28.5569 17.3712 28.5264 17.3101 28.4959 17.2186C28.4959 17.1575 28.4349 17.127 28.3435 17.127H28.2825V17.3712V17.3712ZM28.2825 17.0049H28.3435C28.3435 17.0049 28.4959 16.9744 28.4959 16.9134C28.4959 16.8523 28.4654 16.8218 28.374 16.8218C28.3435 16.8218 28.313 16.8218 28.2825 16.8218V17.0049V17.0049Z" fill="#003A78"/>
<path d="M26.1789 37.6971C24.685 34.7671 23.5874 31.8067 22.8557 28.541H19.2886C19.9593 31.7456 20.9654 34.7976 22.3069 37.6971H26.1789Z" fill="#5BC5F2"/>
<path d="M95.4173 1.19531C98.4051 6.71946 100.112 13.0676 100.112 19.8126C100.112 26.5575 98.5575 32.2953 95.8136 37.6363H99.6856C102.186 32.2038 103.588 26.1608 103.588 19.8126C103.588 13.1287 102.064 6.81102 99.3197 1.19531H95.3868H95.4173Z" fill="#5BC5F2"/>
<path d="M26.8496 1.19531C26.3313 2.14144 25.9045 2.996 25.4776 3.97264H21.6971C22.063 3.02652 22.4898 2.11092 22.9166 1.19531H26.8496" fill="#5BC5F2"/>
<path d="M21.88 21.7049C22.3069 21.7049 22.7032 21.766 23.0996 21.888L23.4349 20.7893C23.0691 20.6672 22.5813 20.6367 22.1544 20.6367C20.0812 20.6367 18.7702 22.0101 18.4044 23.9939C18.0995 25.5505 18.5263 26.9849 20.691 26.9849C21.2703 26.9849 21.8495 26.8628 22.3374 26.7102L22.3983 25.642C22.063 25.7946 21.5142 25.9167 21.1483 25.9167C19.8983 25.9167 19.4715 25.1537 19.7459 23.8108C19.9898 22.59 20.7215 21.7354 21.88 21.7354" fill="#003A78"/>
<path d="M26.9106 21.7049C27.3374 21.7049 27.7337 21.766 28.1301 21.888L28.4654 20.7893C28.0996 20.6672 27.6118 20.6367 27.1849 20.6367C25.1118 20.6367 23.8008 22.0101 23.4349 23.9939C23.13 25.5505 23.5569 26.9849 25.7215 26.9849C26.3008 26.9849 26.8801 26.8628 27.3679 26.7102L27.4288 25.642C27.063 25.7946 26.5447 25.9167 26.1788 25.9167C24.9288 25.9167 24.502 25.1537 24.7764 23.8108C25.0203 22.59 25.752 21.7354 26.9106 21.7354" fill="#003A78"/>
<path d="M15.5995 26.9234H16.819L18.008 20.6973H16.819L15.5995 26.9234Z" fill="#003A78"/>
</svg>
