<svg width="111" height="36" viewBox="0 0 111 36" fill="none" xmlns="http://www.w3.org/2000/svg">
<rect x="0.615736" y="0.819105" width="109.69" height="34.6751" rx="4.39508" fill="white"/>
<path d="M42.2571 12.7407C41.8899 12.405 41.4662 12.1533 40.9296 11.9575C40.3929 11.7617 39.7715 11.6777 39.0372 11.6777H33.6989L34.6027 12.8806V23.8458L33.6989 25.0486H39.0372C39.7715 25.0486 40.3929 24.9368 40.9296 24.7689C41.4662 24.5731 41.8899 24.2934 42.2571 23.9857C42.596 23.65 42.8502 23.2584 43.0197 22.8388C43.1892 22.3912 43.2739 21.9437 43.2739 21.4681V15.2582C43.2739 14.7827 43.1892 14.3072 43.0197 13.8876C42.8502 13.44 42.596 13.0764 42.2571 12.7407ZM40.1952 21.4681C40.1952 21.8038 40.054 22.0835 39.828 22.3353C39.5738 22.5591 39.2349 22.671 38.8112 22.671H37.6814V14.0274H38.8112C39.2349 14.0274 39.5738 14.1393 39.828 14.3631C40.054 14.5869 40.1952 14.8946 40.1952 15.2303V21.4402V21.4681Z" fill="#E30613"/>
<path d="M52.1146 19.175C52.3689 19.0631 52.5666 18.9233 52.7925 18.7275C53.0185 18.5317 53.4987 18.0281 53.4987 16.9652V14.5316C53.4987 14.2518 53.4986 13.9441 53.4139 13.6085C53.3857 13.2728 53.2444 12.9651 53.0467 12.6854C52.849 12.4057 52.5383 12.1539 52.1146 11.9581C51.691 11.7623 51.1261 11.6504 50.42 11.6504H44.9404V25.0213H48.0474V20.3778H49.8551C50.2222 20.3778 50.6177 20.5737 50.6177 21.1051V25.0213H53.7811V21.245C53.7811 20.6016 53.5834 19.3988 52.1429 19.1471L52.1146 19.175ZM50.3635 16.8253C50.3635 17.5246 50.1093 17.9163 49.4031 17.9442H48.0474V13.8602H49.2619C49.6008 13.8602 50.3917 13.9162 50.3917 14.9232V16.8253H50.3635Z" fill="#E30613"/>
<path d="M55.1933 14.7547V21.9717C55.1933 24.3773 56.8033 25.0486 58.2438 25.0486H62.4805V22.5591H58.8652C58.2438 22.5591 58.3003 21.9437 58.3003 21.9437V19.594H62.0004V17.1324H58.3003V14.8386C58.3003 14.8386 58.272 14.1673 58.8652 14.1393H62.4805V11.6777H58.4415C55.5605 11.6777 55.1933 13.6078 55.1933 14.7547V14.7547Z" fill="#E30613"/>
<path d="M68.8638 11.6777H64.0339V25.0486H67.1408V20.4052H69.8806V25.0486H73.044V15.51C73.044 12.6288 71.0951 11.6777 68.8638 11.6777V11.6777ZM69.9088 17.9436H67.1691V13.8596H68.5531C69.5699 13.8596 69.8806 14.3072 69.9088 15.1463V17.9156V17.9436Z" fill="#E30613"/>
<path d="M84.6244 11.4259C83.3534 11.4259 82.3366 11.6777 81.6022 12.0134C81.348 11.8455 81.0656 11.7336 80.7266 11.6217C80.3877 11.5098 78.2976 11.1462 74.8234 11.7896V25.0206H77.9304V14.2232C79.3426 14.0554 79.6816 14.2232 79.8228 14.3351C80.3312 14.6428 80.3594 15.2582 80.3594 15.5099V25.0206H83.071V15.2022C83.071 14.9785 83.071 14.7547 83.0145 14.5029C83.1557 14.447 83.2969 14.391 83.5511 14.3351C83.8053 14.2512 84.4267 14.1393 84.9351 14.391C85.1611 14.5029 85.4718 14.7547 85.4718 15.426V25.0206H88.5505V15.2302C88.5505 14.2232 88.494 13.1602 87.6749 12.405C87.1382 11.9015 86.4039 11.4259 84.6244 11.4259V11.4259Z" fill="#E30613"/>
<path d="M90.6407 14.503H91.9964V25.0486H95.1034V11.6777H91.5163L90.6407 14.503Z" fill="#E30613"/>
<path d="M97.4478 11.6777L96.5157 14.503H97.928V25.0486H101.035V11.6777H97.4478Z" fill="#E30613"/>
<path d="M21.3842 18.4207C21.5819 18.2529 21.6102 17.9172 21.6102 17.6655V13.078C21.6102 12.7423 21.5819 12.5185 21.3842 12.3227C21.1865 12.1269 20.9323 12.043 20.6216 12.043H19.6895V18.7005H20.6216C20.9323 18.7005 21.1865 18.6165 21.3842 18.4207V18.4207Z" fill="#E30613"/>
<path d="M22.2881 24.4056C25.8752 22.0559 27.5699 20.7971 28.3608 20.0139C30.4792 17.832 30.3944 16.2935 30.3662 13.3284V12.3214L30.0272 12.0976C30.0272 12.0976 29.0104 11.3983 27.8806 11.0067V12.713C28.276 12.8808 28.615 13.0767 28.8409 13.2165V13.3564C28.8692 15.3704 28.8974 16.6851 28.3608 17.9439C28.0218 18.6712 27.6264 19.0628 27.2592 19.4824C26.0729 20.853 21.1018 24.5175 21.1018 24.5175V24.3496C21.1018 24.3496 24.2653 21.6642 24.7737 21.1048C27.0615 18.7831 27.2592 16.7131 27.2875 15.3424V9.52413C27.2875 9.52413 24.0958 8.18144 20.2262 8.20942C15.5093 8.26536 13.1368 9.52413 13.1368 9.52413V15.3424C13.1368 16.7131 13.3345 18.7551 15.6223 21.0768C16.159 21.6363 19.2942 24.3496 19.2942 24.3496V24.5175C19.2942 24.5175 14.2665 20.937 13.0803 19.5383C12.5719 18.9509 12.1764 18.3635 11.9787 17.804C11.555 16.9648 11.5268 15.2865 11.555 13.3564V13.2165C11.781 13.0767 12.1199 12.8808 12.5154 12.713V11.0067C11.3856 11.4263 10.4535 12.0696 10.397 12.0976L10.0298 12.3214V13.3284C10.0298 16.2935 10.0016 17.9719 12.0634 20.0139C12.7696 20.7132 15.5093 22.6433 18.0796 24.4056C18.701 24.8531 19.1247 25.1328 19.1247 25.1328C19.1247 25.1328 17.5147 26.4476 17.3735 26.5874C16.8651 27.035 16.6956 27.2867 16.6956 27.5944V28.2938H23.7851V27.5944C23.7851 27.2588 23.6156 27.035 23.1072 26.5874C22.8248 26.3636 22.4576 26.0559 21.8644 25.5804L18.475 27.1469V27.063L22.3446 24.4056H22.2881ZM16.4697 20.5453L17.317 19.6502V11.1745L16.4697 10.2514H19.6331C21.582 10.2514 21.8927 10.3353 22.3164 10.4752C22.74 10.6151 23.0225 10.8109 23.2484 11.0626C23.5309 11.3144 23.7286 11.6221 23.8698 11.9298C24.0111 12.2654 24.0675 12.6011 24.0675 12.9927V17.7761C24.0675 18.1397 23.9828 18.5033 23.8698 18.839C23.7569 19.1747 23.5591 19.4824 23.2484 19.7341C22.9942 19.9859 22.6553 20.1817 22.2316 20.3495C21.4408 20.6572 19.7743 20.5733 19.4354 20.5733H16.4697V20.5453Z" fill="#E30613"/>
<rect x="0.615736" y="0.819105" width="109.69" height="34.6751" rx="4.39508" stroke="black" stroke-width="0.458523"/>
</svg>
