<svg width="114" height="37" viewBox="0 0 114 37" fill="none" xmlns="http://www.w3.org/2000/svg">
<rect x="0.959778" y="0.916016" width="112.048" height="36.0832" rx="4.62707" fill="white"/>
<path d="M52.1111 16.3672H52.0247C50.0375 16.3672 48.8279 17.8036 48.5975 18.1196L48.7991 16.5683H45.4296L44.3352 25.2443H47.7048L48.2232 21.1649C48.3672 19.987 49.0295 19.0964 50.1527 19.0964C51.2759 19.0964 51.6503 19.9295 51.5351 21.0787L51.0167 25.2443H54.4151L55.0775 20.0157C55.2791 18.3782 54.5879 16.3672 52.1111 16.3672" fill="black"/>
<path d="M109.653 20.4756C109.653 18.4072 108.962 16.2812 104.988 16.2812H104.296C100.264 16.2812 99.2564 18.5221 99.0548 20.4756C99.026 20.7916 98.9972 21.0789 98.9972 21.3662C98.9972 23.4347 99.9476 25.4457 103.778 25.4457H104.44C108.818 25.4457 109.365 23.2336 109.509 22.027H106.168C106.082 22.2855 105.765 23.0899 104.181 23.0899C102.828 23.0899 102.338 22.3717 102.309 21.4811H109.595C109.595 21.28 109.682 20.7629 109.682 20.4469M102.54 19.7C102.77 18.9243 103.288 18.3784 104.584 18.3784C105.88 18.3784 106.341 18.8668 106.399 19.7H102.54Z" fill="black"/>
<path d="M43.5574 22.3402L43.9318 19.4099C44.1046 18.0309 43.8166 16.3359 39.6694 16.3359H39.0358C34.9751 16.3359 34.6583 18.2033 34.5431 19.3524H37.6534C37.711 19.0652 37.7974 18.4619 39.2374 18.4619C40.5334 18.4619 40.6486 18.8066 40.6486 19.1226C40.6486 19.3812 40.5334 19.5248 40.2166 19.5823L36.991 19.927C35.8679 20.0707 35.1479 20.3005 34.6871 20.7601C34.0823 21.306 33.9095 22.1679 33.9095 22.9148C33.9095 24.265 34.6871 25.4429 36.8759 25.4429H36.991C38.8342 25.4429 39.7558 24.5811 40.1014 24.1214C40.159 24.8396 40.5046 25.2705 41.0806 25.2705H43.8454L44.1622 22.7424H43.8166C43.5862 22.7424 43.5286 22.5701 43.5574 22.369M40.3606 21.5933C40.2166 22.5988 39.4102 23.3457 38.2294 23.3457C37.4518 23.3457 37.2214 22.9435 37.2214 22.5701C37.2214 22.1104 37.4518 21.8518 38.1142 21.7082L40.3894 21.1911L40.3318 21.5933H40.3606Z" fill="black"/>
<path d="M27.5735 17.6619L27.7751 16.168H34.2839L34.6583 13.209H24.6359L23.1383 25.2463H26.6231L27.1991 20.621H33.5927L33.9671 17.6619H27.5735Z" fill="black"/>
<path d="M88.5142 22.3402L88.8886 19.4099C89.0614 18.0309 88.7734 16.3359 84.6263 16.3359H83.9927C79.9319 16.3359 79.6151 18.2033 79.4999 19.3524H82.6103C82.6679 19.0652 82.7543 18.4619 84.1943 18.4619C85.4902 18.4619 85.6054 18.8066 85.6054 19.1226C85.6054 19.3812 85.4902 19.5248 85.1735 19.5823L81.9479 19.927C80.7959 20.0707 80.1047 20.3005 79.6439 20.7601C79.0391 21.306 78.8663 22.1679 78.8663 22.9148C78.8663 24.265 79.6439 25.4429 81.8327 25.4429H81.9479C83.7911 25.4429 84.7127 24.5811 85.0582 24.1214C85.1158 24.8396 85.4614 25.2705 86.0374 25.2705H88.8022L89.119 22.7424H88.7734C88.5142 22.7424 88.4854 22.5701 88.5142 22.369M85.3174 21.5933C85.1734 22.5988 84.3671 23.3457 83.1863 23.3457C82.4087 23.3457 82.1783 22.9435 82.1783 22.5701C82.1783 22.1104 82.4087 21.8518 83.0711 21.7082L85.3462 21.1911L85.2886 21.5933H85.3174Z" fill="black"/>
<path d="M62.3927 22.2278C60.1751 22.2278 59.5415 20.935 59.5415 19.6134C59.5415 19.3262 59.5415 19.0963 59.5991 18.7803C59.7431 17.6886 60.4055 16.2235 62.9399 16.2235C65.5895 16.2235 65.8199 17.7174 65.8487 18.0621H69.5063C69.7367 16.3671 69.1319 13.0059 63.3431 13.0059H62.8823C57.2951 13.0059 56.172 16.4533 55.9128 18.5792C55.8552 19.1251 55.8264 19.4698 55.8264 19.9295C55.8264 22.4289 56.9783 25.4741 62.0183 25.4741H62.5079C68.1815 25.4741 69.1031 22.0267 69.2471 20.2455H65.5895C65.5031 20.5328 65.0999 22.2278 62.3927 22.2278" fill="black"/>
<path d="M99.1122 16.5391H90.3283L90.0115 19.1246H94.4466L89.5219 22.8881L89.2339 25.2438H98.0466L98.3634 22.5721H93.7842L98.8242 18.8661L99.1122 16.5391Z" fill="black"/>
<path d="M76.4755 16.3672H76.3603C74.7187 16.3672 73.7971 17.66 73.5379 18.1484L73.7395 16.5683H70.3699L69.3043 25.2443H72.6739L73.2499 20.8201C73.3939 19.671 73.8547 18.9815 74.6323 18.9815C75.5251 18.9815 75.7267 19.8434 75.6115 20.7627V21.0787H78.8371L78.9235 20.3605C79.1539 18.4069 78.6931 16.3672 76.4755 16.3672" fill="black"/>
<path d="M19.1929 14.1553C18.8185 13.5232 18.3001 12.9774 17.7241 12.5752C16.0825 11.3686 13.9225 10.794 11.9065 10.9376C10.2073 11.0526 8.56573 11.7133 7.26974 12.805C5.97375 13.8967 5.08095 15.3619 4.67776 16.9994C4.53376 17.6027 4.44736 18.2347 4.44736 18.8668C4.44736 23.2622 7.98974 26.8246 12.3673 26.8246C12.3673 26.8246 12.2521 26.7097 12.2233 26.6809C11.9353 26.4511 11.6473 26.25 11.3593 26.0489C10.8985 25.7042 10.4665 25.3594 10.0345 24.9572C9.71773 24.6699 9.40093 24.3827 9.11293 24.0666C9.42973 23.5208 11.5033 20.1021 16.1113 20.1595C16.1113 20.1595 12.2233 17.6889 7.18334 20.9927C7.12574 20.7916 7.09694 20.5905 7.03934 20.3894C6.92414 19.8723 6.98174 19.2977 7.12574 18.7518C7.26974 18.206 7.47134 17.6889 7.73054 17.2292C9.05533 14.9022 12.0793 13.6094 14.6425 14.1265L13.2601 15.2182C17.2057 14.2414 20.4025 17.9762 20.4025 17.9762C20.4025 16.8845 19.9993 15.7928 19.5673 14.7873C19.4809 14.5862 19.3657 14.3564 19.2217 14.184" fill="#3853A0"/>
</svg>
