<svg width="113" height="37" viewBox="0 0 113 37" fill="none" xmlns="http://www.w3.org/2000/svg">
<rect x="0.668701" y="0.916016" width="111.474" height="35.9787" rx="4.62434" fill="white"/>
<path d="M58.3538 14.4434C58.3538 14.0879 58.6026 13.9102 58.9225 13.9102C59.3491 13.9102 59.5269 14.3012 59.5269 14.6922C59.5269 15.2965 59.0647 15.7232 58.8515 15.8298L58.7803 15.7587C58.7803 15.7587 58.9225 15.5454 58.9225 15.4388C58.9225 14.9411 58.3538 14.9055 58.3538 14.4078M63.6149 21.7664C63.6149 22.4773 63.1883 23.1172 62.0152 23.1172C60.9488 23.1172 60.1667 22.4418 59.7402 21.9441L59.598 22.0507C59.7046 22.5484 60.5222 23.8282 62.1574 23.8282C63.7926 23.8282 65.1435 22.7261 65.1435 21.1265C65.1435 18.7803 61.5176 18.6736 61.5176 16.7896C61.5176 16.1852 61.9797 15.652 62.6906 15.652C63.5082 15.652 63.7926 16.1853 63.8637 16.5408C63.8993 16.8251 64.0059 17.074 64.3969 17.074C64.788 17.074 64.8946 16.7896 64.8946 16.5052C64.8946 15.8298 64.1837 15.1544 62.8328 15.1544C61.6597 15.1544 60.0601 15.7232 60.0601 17.3939C60.0601 19.8112 63.6504 19.7401 63.6504 21.8019M35.8519 19.4557C35.8519 16.3985 37.3804 15.6165 38.7668 15.6165C39.7266 15.6165 40.0465 16.1142 40.1887 16.5408C40.2598 16.7896 40.3664 17.074 40.7575 17.074C41.1485 17.074 41.2551 16.7896 41.2551 16.5052C41.2551 15.8298 40.2598 15.1188 38.6957 15.1188C36.8116 15.1188 34.11 16.2208 34.11 19.5268C34.11 21.9796 35.7097 23.8282 38.3047 23.8282C40.2243 23.8282 41.0063 23.2238 41.4685 22.7617L41.3618 22.584C41.0063 22.7972 40.2598 23.1527 39.1223 23.1527C36.9183 23.1527 35.8874 21.553 35.8874 19.4557M71.2222 19.4557C71.2222 16.3985 72.7507 15.6165 74.1371 15.6165C75.0969 15.6165 75.4168 16.1142 75.559 16.5408C75.6301 16.7896 75.7368 17.074 76.0923 17.074C76.4477 17.074 76.5899 16.7896 76.5899 16.5052C76.5899 15.8298 75.5946 15.1188 74.0305 15.1188C72.1464 15.1188 69.4448 16.2208 69.4448 19.5268C69.4448 21.9796 71.0444 23.8282 73.6394 23.8282C75.5235 23.8282 76.3411 23.2238 76.8032 22.7617L76.6966 22.584C76.3411 22.7972 75.5946 23.1527 74.4571 23.1527C72.2531 23.1527 71.1866 21.553 71.1866 19.4557M48.7913 19.9889C48.7913 17.0384 47.6183 15.652 46.0897 15.652C44.9877 15.652 43.4591 16.1141 43.4591 19.4557C43.4591 21.2331 44.2057 23.2238 46.2674 23.2238C47.9382 23.2238 48.7913 21.6952 48.7913 19.9534M45.912 23.7926C43.317 23.7926 41.6462 21.9441 41.6462 19.4913C41.6462 16.363 44.2056 15.0833 46.1963 15.0833C48.8624 15.0833 50.4976 16.8962 50.4976 19.3135C50.4976 22.3707 48.2937 23.7926 45.912 23.7926M22.5924 15.261V15.4388C22.8768 15.4743 23.0901 15.5809 23.0901 16.2564V22.4418C23.0901 23.6504 22.7346 24.3614 21.917 24.3614C20.6728 24.3614 21.0283 23.0461 20.2463 23.0816C19.9974 23.0816 19.8552 23.2594 19.8552 23.5438C19.8552 24.2547 20.6373 24.7524 21.5971 24.7524C23.3389 24.7524 24.6542 23.6504 24.6542 21.162C24.6542 19.8468 24.6542 16.683 24.6542 16.2208C24.6542 15.5454 24.8675 15.4387 25.1519 15.4032V15.2255C25.1519 15.2255 24.4054 15.2255 23.8721 15.2255H22.5924V15.261ZM30.1286 15.261C30.5907 16.3986 31.9416 19.7756 32.6881 21.6241C33.0791 22.5839 33.4346 23.3304 34.11 23.5082V23.6859C32.0482 23.7215 31.7283 23.4371 31.4083 22.6906C31.3373 22.5129 31.1595 22.0863 30.9462 21.482H27.7469C27.6047 21.873 27.4625 22.1929 27.3914 22.4418C27.2848 22.7262 27.1426 23.0461 27.1426 23.2594C27.1426 23.4371 27.2137 23.4726 27.3914 23.5082V23.6859H25.8273V23.5082C26.0761 23.4371 26.1828 23.366 26.3605 23.0105C26.5027 22.655 29.2755 15.9009 29.4887 15.261H30.1997H30.1286ZM30.6974 20.8421C30.2708 19.7401 29.702 18.3537 29.3466 17.3583C28.9911 18.2826 28.4223 19.7045 27.9602 20.8421H30.6974ZM52.275 19.0291V16.3985C52.275 15.6876 52.1684 15.4743 51.9196 15.4388V15.261H53.0571C53.2704 15.261 54.3013 15.261 54.5146 15.261C55.8299 15.261 57.5006 15.5099 57.5006 17.1095C57.5006 17.8205 57.1451 18.7803 55.8654 19.0646C57.1451 19.2424 57.9628 19.9889 57.9628 21.0909C57.9628 22.5484 56.7896 23.6859 54.9411 23.6859H51.9196V23.5082C52.204 23.5082 52.275 23.2594 52.275 22.5484V19.0646V19.0291ZM54.3724 15.7587C54.1591 15.7587 53.9814 15.7587 53.8392 15.7587V18.9936C53.8392 18.9936 54.1947 18.9936 54.3724 18.9936C55.5099 18.9936 55.9365 18.2826 55.9365 17.2517C55.9365 16.4341 55.581 15.7587 54.3724 15.7587ZM56.292 21.162C56.292 20.2022 55.6877 19.5268 54.408 19.5268C54.1947 19.5268 54.0169 19.5268 53.8392 19.5268V22.5128C53.8392 22.975 53.9814 23.1172 54.479 23.1172C55.6521 23.1172 56.292 22.5484 56.292 21.1265M77.8341 23.6149V23.4371C78.1185 23.4371 78.1896 23.1883 78.1896 22.4773V16.3275C78.1896 15.6165 78.1185 15.4032 77.8341 15.3676V15.1899H80.5358C82.8109 15.1899 83.8062 15.8298 83.8062 17.1806C83.8062 18.2826 82.9886 19.278 81.6733 19.4913C82.9175 19.5979 83.7351 22.7973 85.0148 23.4371V23.6149C83.9484 23.6149 83.1663 23.686 82.6687 23.1527C82.1354 22.584 81.4245 21.1265 80.9268 20.38C80.6069 19.9534 80.3225 19.7756 79.7537 19.8112V22.4773C79.7537 23.1883 79.8248 23.4016 80.1092 23.4371V23.6149H77.8341M82.0999 17.2872C82.0999 16.2208 81.5311 15.7232 80.3225 15.7232C80.1092 15.7232 79.8959 15.7231 79.7537 15.7587V19.278C79.7537 19.278 80.0026 19.278 80.3225 19.278C81.46 19.278 82.0999 18.6736 82.0999 17.2517M91.3068 23.5793C91.3068 23.1883 91.449 22.0507 91.449 21.9796H91.2713C90.9513 22.6906 90.4892 23.0105 89.3517 23.0105C88.854 23.0105 88.6763 23.0105 88.3563 23.0105C87.9653 23.0105 87.752 22.9039 87.752 22.5128V19.5624C88.2142 19.5624 88.8896 19.5624 89.4583 19.5624C90.1693 19.5624 90.5248 19.3491 90.7381 18.8158V18.7447C90.4892 18.8158 90.2404 18.8514 89.3517 18.8514H87.752V15.7587H89.245C90.1693 15.7587 90.667 16.0075 90.8447 16.6119C90.9158 16.6119 90.9513 16.6119 91.0224 16.6119C91.0224 16.5408 90.9514 15.5454 90.9158 15.1899H85.8324V15.3676C86.1168 15.3676 86.1879 15.6165 86.1879 16.3275V22.4773C86.1879 23.1883 86.1168 23.4016 85.8324 23.4371V23.6149H91.2357M97.9899 23.6149C98.0254 23.2239 98.1321 22.0863 98.1321 22.0152H97.9543C97.6699 22.7261 97.2078 23.0461 96.0347 23.0461C95.5371 23.0461 95.3593 23.0461 95.0394 23.0461C94.6484 23.0461 94.4351 22.9395 94.4351 22.5484V19.5979C94.8972 19.5979 95.6082 19.5979 96.1414 19.5979C96.8523 19.5979 97.2078 19.3846 97.4211 18.8514V18.7803C97.1723 18.8514 96.9234 18.887 96.0347 18.887H94.4351V15.7942H95.9281C96.8523 15.7942 97.35 16.0431 97.5277 16.6474C97.6344 16.6474 97.6344 16.6474 97.7055 16.6474C97.7055 16.5763 97.5988 15.581 97.5988 15.2255H92.5155V15.4032C92.7999 15.4032 92.871 15.652 92.871 16.363V22.5128C92.871 23.2238 92.7999 23.4371 92.5155 23.4727V23.6504H97.9543M99.4473 15.2255V15.4032C99.7317 15.4387 99.8028 15.652 99.8028 16.363V22.5128C99.8028 23.2238 99.7317 23.4371 99.4473 23.4727V23.6504H101.722V23.4727C101.438 23.4727 101.367 23.2238 101.367 22.5128V19.5268C101.971 19.4557 102.362 19.9534 102.647 20.4155C103.18 21.162 104.069 22.584 104.602 23.1527C105.135 23.7215 105.953 23.6504 107.019 23.6504V23.4727C105.633 22.8683 104.246 19.1713 103.073 18.9936C103.784 18.3182 105.491 16.3275 106.45 15.261H105.277C102.896 17.9982 102.185 19.0291 101.331 19.1002V15.261H99.4118L99.4473 15.2255Z" fill="black"/>
<path d="M7.23502 23.2969C7.23502 23.2969 7.09284 23.2969 7.02174 23.2969C6.844 23.2969 6.70182 23.2258 6.55963 23.1903C6.38189 23.1547 6.20412 23.0836 6.06193 23.0125C5.91974 22.977 5.77756 22.9059 5.63537 22.8348C5.42208 22.7282 5.24433 22.6215 5.06659 22.4793C4.95994 22.4082 4.88887 22.3372 4.78222 22.2305C4.67558 22.1239 4.56892 22.0172 4.46228 21.875C4.39118 21.8039 4.32007 21.7328 4.28453 21.6261C4.21343 21.5195 4.14234 21.4129 4.07125 21.3062C4.00015 21.1996 3.96462 21.0574 3.89352 20.9152C3.82243 20.7019 3.75132 20.5242 3.71577 20.3109C3.60913 19.8843 3.60913 19.4222 3.60913 18.9956C3.60913 18.8179 3.60912 18.6757 3.68022 18.4979C3.68022 18.4624 3.68022 18.3912 3.68022 18.3557C3.68022 18.2135 3.75131 18.0358 3.78685 17.8936C3.78685 17.8225 3.85797 17.7869 3.89352 17.7514C3.92907 17.7514 3.96459 17.7514 4.03569 17.7514C4.07124 17.7514 4.14236 17.8225 4.14236 17.858C4.17791 17.9291 4.21343 18.0358 4.28453 18.1069C4.35562 18.2491 4.42674 18.4268 4.49783 18.569C4.60448 18.7823 4.74667 18.9601 4.88886 19.1734C4.99551 19.28 5.06658 19.4222 5.17323 19.4933C5.24432 19.5288 5.27988 19.5999 5.35098 19.6354C5.35098 19.6354 5.35099 19.6354 5.38653 19.6354C5.52873 19.671 5.63537 19.5999 5.63537 19.4577C5.63537 19.3866 5.63536 19.3155 5.59981 19.2444C5.52872 19.0311 5.45763 18.8179 5.38653 18.6046C5.38653 18.4979 5.35097 18.3913 5.31542 18.2491C5.31542 18.0713 5.24434 17.9291 5.24434 17.7514C5.24434 17.5736 5.24433 17.3959 5.20878 17.2182C5.20878 16.9693 5.20879 16.7205 5.24434 16.4716C5.24434 16.3295 5.24433 16.1873 5.31542 16.0806C5.31542 15.9384 5.38654 15.7962 5.42209 15.654C5.42209 15.5474 5.45763 15.4408 5.49317 15.3341C5.52872 15.1564 5.59983 15.0142 5.67093 14.8365C5.74202 14.6943 5.81312 14.5876 5.91976 14.4809C5.95531 14.4809 6.02638 14.4098 6.06193 14.4098C6.16857 14.4098 6.27524 14.4454 6.31079 14.5165C6.34634 14.5876 6.38188 14.6587 6.38188 14.7298C6.38188 14.8365 6.38188 14.9431 6.41743 15.0497C6.45298 15.2275 6.52406 15.3697 6.7018 15.4408C6.84399 15.5119 6.95063 15.5474 7.09283 15.4408C7.16392 15.4052 7.23503 15.3341 7.27058 15.2275C7.34167 15.0497 7.41276 14.9076 7.48386 14.7298C7.5905 14.5521 7.6616 14.3743 7.76825 14.161C7.91044 13.9122 8.05264 13.6989 8.19483 13.4856C8.26593 13.379 8.33702 13.2723 8.40811 13.1657C8.51476 13.0235 8.65695 12.8813 8.76359 12.7035C8.83469 12.5969 8.94134 12.4902 9.04798 12.4191C9.11908 12.3836 9.15464 12.3125 9.22573 12.3125C9.26128 12.3125 9.29682 12.3125 9.33237 12.3125C9.40347 12.3125 9.47456 12.348 9.54565 12.4191C9.6523 12.5258 9.61675 12.668 9.54565 12.7746C9.47456 12.9524 9.3679 13.1301 9.26126 13.2723C9.19016 13.4145 9.11908 13.5567 9.04798 13.6989C9.01243 13.8055 8.97689 13.9477 8.94134 14.0544C8.94134 14.2321 8.94135 14.4099 8.9769 14.5521C9.01244 14.6587 9.08352 14.7653 9.15462 14.872C9.22572 14.9075 9.26128 14.9786 9.33237 15.0142C9.43902 15.0852 9.58119 15.1564 9.75893 15.1919C9.90112 15.263 10.0789 15.263 10.2211 15.2985C10.3633 15.2985 10.4699 15.3696 10.6121 15.4052C10.7187 15.4407 10.8254 15.5119 10.932 15.6185C11.0387 15.7607 11.0742 15.8673 11.0031 16.0451C10.932 16.1873 10.8609 16.2584 10.7187 16.365C10.6832 16.365 10.6477 16.4361 10.6121 16.4361C10.541 16.4361 10.5054 16.5072 10.4344 16.5072C10.2566 16.5783 10.1144 16.6138 9.93668 16.6494C9.75894 16.6849 9.5812 16.7205 9.40346 16.7916C9.15462 16.8627 8.94132 16.9693 8.72803 17.1115C8.58584 17.1826 8.47921 17.2893 8.40811 17.4315C8.33702 17.5737 8.30147 17.7158 8.30147 17.858C8.30147 17.9647 8.37255 18.1069 8.4792 18.1779C8.62139 18.3201 8.83469 18.3912 9.04798 18.4623C9.22572 18.4979 9.40347 18.4979 9.58121 18.5335C9.68785 18.5335 9.83004 18.5334 9.93668 18.569C10.0433 18.569 10.1855 18.569 10.2922 18.6401C10.3988 18.6401 10.541 18.6757 10.6476 18.7112C10.7898 18.7468 10.932 18.7823 11.0387 18.889C11.1453 18.9956 11.1809 19.1022 11.1453 19.2444C11.1453 19.3155 11.0742 19.3866 11.0031 19.4222C10.8965 19.4933 10.7898 19.5288 10.6476 19.5644C10.5054 19.5999 10.3633 19.5999 10.2211 19.6354C10.2211 19.6354 10.15 19.6354 10.1144 19.6354C9.97224 19.6354 9.79448 19.6355 9.65229 19.671C9.5101 19.671 9.3679 19.671 9.26126 19.7421C9.08352 19.7421 8.94133 19.8487 8.76359 19.9198C8.65695 19.9909 8.55031 20.062 8.40811 20.1331C8.26592 20.2398 8.15928 20.3464 8.05264 20.4886C7.98154 20.5953 7.91044 20.7019 7.91044 20.8085C7.8749 20.9507 7.83935 21.0574 7.8038 21.1996C7.76826 21.3773 7.76826 21.555 7.8038 21.7328C7.8038 21.9105 7.83934 22.0528 7.87489 22.2305C7.91044 22.3727 7.98154 22.5504 8.05264 22.6926C8.05264 22.7637 8.12372 22.7993 8.12372 22.8704C8.19482 22.977 8.23038 23.0836 8.30147 23.1903C8.44367 23.4391 8.62141 23.6524 8.79915 23.8657C8.97689 24.0434 9.15461 24.2212 9.3679 24.3634C9.51009 24.47 9.6523 24.5767 9.83004 24.6478H9.90113C9.90113 24.6478 9.93667 24.6478 9.90113 24.7189C9.90113 24.7189 9.86559 24.7544 9.83004 24.7189C9.79449 24.7189 9.75895 24.7189 9.7234 24.7189C9.61676 24.6833 9.54566 24.6478 9.43901 24.6122C9.26127 24.5056 9.08353 24.4345 8.90579 24.2923C8.76359 24.1856 8.65695 24.1146 8.51475 24.0079C8.33701 23.8657 8.19483 23.7235 8.05264 23.5458C7.91045 23.4036 7.76825 23.2258 7.66161 23.0481C7.55496 22.9059 7.48386 22.7282 7.37722 22.586C7.30612 22.4438 7.27059 22.3016 7.19949 22.1238C7.16395 22.0172 7.12837 21.875 7.09283 21.7684C7.09283 21.6617 7.05729 21.5551 7.02174 21.4484C7.02174 21.3062 6.98619 21.164 6.98619 21.0218C6.95064 20.7374 6.95064 20.4886 6.98619 20.2042C6.98619 19.9554 6.9862 19.7065 7.0573 19.4577C7.0573 19.351 7.05729 19.2444 7.12838 19.1022C7.12838 18.96 7.19947 18.7823 7.23502 18.6401C7.23502 18.5334 7.30611 18.3913 7.34166 18.2846C7.34166 18.178 7.41277 18.0713 7.41277 17.9647C7.44832 17.8225 7.51942 17.6803 7.55497 17.5381L7.73269 17.0049C7.73269 17.0049 7.83935 16.6849 7.91044 16.5428C7.98154 16.4361 8.0171 16.2939 8.08819 16.1873C8.12374 16.0806 8.19482 15.974 8.23036 15.9029C8.23036 15.8318 8.30148 15.7607 8.33703 15.6896C8.33703 15.6896 8.33703 15.6541 8.33703 15.6185C8.33703 15.5474 8.30147 15.5474 8.26592 15.5474C8.23037 15.5474 8.19483 15.6185 8.15928 15.654C8.08818 15.7607 7.98154 15.8673 7.91044 15.974C7.83935 16.0806 7.76826 16.1873 7.69716 16.3295C7.66162 16.4006 7.59052 16.4716 7.55497 16.5783C7.44832 16.7205 7.37723 16.8627 7.30613 17.0404C7.23504 17.1471 7.19948 17.2537 7.12838 17.3604C7.05729 17.467 7.02173 17.5737 6.98619 17.7159C6.98619 17.787 6.91509 17.8936 6.87955 17.9647C6.87955 18.0002 6.84401 18.0713 6.80846 18.1069C6.77291 18.2491 6.70181 18.3912 6.66627 18.569C6.63072 18.7112 6.59518 18.8178 6.55963 18.96C6.55963 19.1022 6.48852 19.2444 6.48852 19.4222C6.48852 19.5288 6.45298 19.6354 6.41743 19.7421C6.41743 19.8132 6.41743 19.8843 6.41743 19.9554C6.41743 20.3108 6.41743 20.6308 6.41743 20.9863C6.41743 21.1996 6.48852 21.4484 6.52407 21.6617C6.55962 21.875 6.6307 22.0883 6.7018 22.266C6.77289 22.5149 6.87954 22.7282 6.98619 22.977C7.02173 23.0481 7.05728 23.1192 7.09283 23.1903" fill="black"/>
<path d="M14.0603 20.2022C14.0603 20.4155 14.0603 20.6288 13.9892 20.8421C13.9892 20.9843 13.9182 21.1265 13.8826 21.3042C13.8471 21.5175 13.7404 21.7308 13.6693 21.9441C13.5627 22.1574 13.456 22.3351 13.3494 22.5128C13.2427 22.655 13.1361 22.7973 13.0295 22.9395C13.0295 22.9395 12.9939 22.975 12.9584 23.0105C12.9584 23.0105 12.9228 23.0105 12.8873 23.0105C12.7806 23.0105 12.7095 23.0105 12.6029 23.0105C12.5318 23.0105 12.4607 23.0105 12.3896 23.0105C12.1052 22.975 11.7853 22.9039 11.5009 22.7972C11.2521 22.6906 11.0388 22.584 10.861 22.4418C10.7544 22.3351 10.6477 22.2285 10.5766 22.0863C10.5055 21.9085 10.47 21.7308 10.5055 21.5175C10.5766 21.3397 10.6833 21.1976 10.7899 21.1265C10.9321 21.0198 11.1099 20.9487 11.2521 20.8776C11.4298 20.8066 11.6075 20.771 11.8208 20.7354C11.9986 20.7354 12.1763 20.6643 12.354 20.6288C12.4251 20.6288 12.5318 20.5577 12.6384 20.5221C12.7451 20.4866 12.8517 20.4155 12.9584 20.3089C13.1005 20.2022 13.2072 20.06 13.2783 19.9178C13.3494 19.7756 13.3849 19.669 13.3849 19.5268C13.3849 19.3846 13.3849 19.278 13.3138 19.1358C13.2072 18.9225 13.065 18.7448 12.8517 18.6026C12.6384 18.4604 12.4251 18.3537 12.2118 18.2826C12.0341 18.2115 11.8208 18.176 11.6075 18.1049C11.5009 18.1049 11.3942 18.1049 11.2876 18.0338C11.0388 17.9982 10.8255 17.9272 10.5766 17.8916C10.4344 17.8916 10.3278 17.8205 10.1856 17.7494C10.1501 17.7494 10.1145 17.6783 10.079 17.6427C10.0434 17.6072 10.0434 17.5361 10.079 17.5006C10.1145 17.465 10.1501 17.4295 10.2212 17.3939C10.3278 17.3228 10.4344 17.2873 10.5411 17.2517C10.6477 17.2162 10.7899 17.1806 10.8966 17.1451C11.0032 17.1095 11.1454 17.0384 11.2521 16.9673C11.3943 16.8962 11.5009 16.7896 11.6075 16.6829C11.6786 16.5763 11.7497 16.5052 11.8208 16.3985C11.8919 16.2208 11.963 16.0431 11.963 15.8653C11.963 15.6876 11.963 15.5454 11.963 15.3676C11.9275 15.1544 11.8564 14.9766 11.7497 14.7989C11.6786 14.6922 11.6075 14.5501 11.5364 14.4434C11.4653 14.3368 11.3942 14.2301 11.3231 14.159C11.3231 14.159 11.2876 14.0879 11.2876 14.0524C11.2876 13.9813 11.3231 13.9102 11.3942 13.9102C11.5009 13.9102 11.6431 13.9102 11.7497 13.9813C11.963 14.0524 12.1407 14.159 12.3185 14.3012C12.4962 14.4078 12.6384 14.55 12.7806 14.6567C12.9584 14.7989 13.1361 14.9766 13.3138 15.1188C13.456 15.2255 13.5627 15.3676 13.6693 15.4743C13.8115 15.6165 13.9537 15.7942 14.0603 15.9364C14.1314 16.0075 14.2026 16.1142 14.3092 16.1497C14.4514 16.2564 14.558 16.1497 14.6647 16.0431C14.7002 15.9364 14.7358 15.7942 14.7358 15.652C14.7358 15.5454 14.7358 15.4387 14.7358 15.3676C14.7358 15.3676 14.7358 15.3321 14.7358 15.2965C14.7358 15.261 14.8069 15.261 14.878 15.2965C14.9135 15.2965 14.9846 15.3676 15.0201 15.4032C15.1623 15.5454 15.269 15.6876 15.3401 15.8653C15.4112 15.972 15.4823 16.1142 15.5178 16.2208C15.5889 16.3986 15.66 16.5763 15.6956 16.754C15.7311 16.8607 15.7667 17.0029 15.8022 17.1095C15.8378 17.2873 15.8733 17.5005 15.8733 17.6783C15.8733 17.7849 15.8733 17.8916 15.8733 17.9982C15.8733 18.1404 15.8733 18.3181 15.8377 18.4603C15.8377 18.6381 15.7667 18.8514 15.6956 19.0291C15.66 19.1713 15.5889 19.278 15.5534 19.4202C15.5534 19.4202 15.5534 19.4201 15.5534 19.4557C15.5534 19.4557 15.5534 19.4557 15.5889 19.4557C15.5889 19.4557 15.66 19.4557 15.6956 19.3846C15.8378 19.3135 15.9444 19.2068 16.0155 19.0646C16.1577 18.8869 16.2643 18.6736 16.3354 18.4248C16.3354 18.3537 16.371 18.3182 16.4065 18.2471C16.4065 18.1404 16.5487 18.1404 16.6198 18.2115C16.6909 18.2826 16.762 18.3893 16.7975 18.4959C16.8686 18.6381 16.9042 18.8158 16.9397 18.958C17.0108 19.1713 17.0108 19.3846 17.0464 19.5979C17.0464 19.6335 17.0464 19.669 17.0464 19.7045V19.7757C17.0464 19.7757 17.0464 19.8468 17.0464 19.8823C17.0464 20.06 17.0464 20.2378 17.0108 20.4155C17.0108 20.5221 16.9397 20.6644 16.9397 20.771C16.9042 20.9132 16.8331 21.0554 16.7975 21.162C16.7265 21.2687 16.6909 21.3753 16.6198 21.482C16.4421 21.6953 16.2643 21.873 16.0866 22.0507C15.9089 22.1929 15.7311 22.2996 15.5178 22.4062C15.3401 22.5128 15.1623 22.584 14.949 22.6551C14.7357 22.7617 14.5225 22.8328 14.3092 22.975C14.167 23.0816 13.9892 23.1883 13.8471 23.2949C13.7049 23.4016 13.5627 23.5437 13.3849 23.6859C13.2427 23.7926 13.1005 23.8993 12.9584 24.0059C12.7806 24.1126 12.6029 24.2547 12.4251 24.3614C12.2474 24.468 12.0697 24.5746 11.8919 24.6813C11.7497 24.7524 11.6431 24.8591 11.572 25.0013C11.5009 25.1079 11.4653 25.2145 11.4653 25.3567C11.4653 25.3923 11.4653 25.4634 11.4653 25.4989C11.4653 25.57 11.3942 25.6056 11.3231 25.6056C11.252 25.6056 11.2521 25.57 11.2165 25.5345C11.2165 25.5345 11.2165 25.4989 11.2165 25.4634C11.2165 25.3567 11.2165 25.2856 11.2165 25.2145C11.2165 25.1079 11.2165 25.0012 11.2521 24.859C11.2521 24.7879 11.3231 24.7524 11.3942 24.7169C11.6786 24.5747 11.9275 24.4325 12.1763 24.2547C12.4251 24.077 12.674 23.8993 12.9228 23.7215C13.1005 23.5793 13.2783 23.4016 13.4205 23.2594C13.5271 23.1172 13.6693 22.975 13.776 22.8328C13.8826 22.6906 13.9892 22.5484 14.0603 22.3707C14.1314 22.264 14.167 22.1574 14.2025 22.0863C14.2381 21.9796 14.2736 21.9086 14.3092 21.8375C14.3447 21.6597 14.4158 21.482 14.4514 21.3398C14.4514 21.1976 14.5225 21.0198 14.5225 20.8776C14.5225 20.6288 14.5936 20.3444 14.558 20.0956C14.558 19.8467 14.558 19.5979 14.4869 19.349C14.4869 19.2068 14.4514 19.0647 14.3803 18.9225C14.3092 18.7447 14.2736 18.567 14.2025 18.4248C14.1314 18.2471 14.0603 18.0693 13.9892 17.8916C13.8826 17.6783 13.776 17.4294 13.6693 17.2517C13.5627 17.0384 13.4205 16.7896 13.2783 16.6119C13.1361 16.363 12.9583 16.1497 12.8162 15.9364C12.7806 15.8653 12.7451 15.8298 12.674 15.7587C12.674 15.7231 12.6029 15.6876 12.5673 15.6876C12.5318 15.6876 12.4962 15.6876 12.4962 15.7587C12.4962 15.7942 12.4962 15.8298 12.5318 15.8653C12.5673 15.972 12.6384 16.0431 12.7095 16.1142C12.7806 16.2208 12.8162 16.3275 12.8517 16.4341C12.9228 16.5763 12.9939 16.7185 13.065 16.8607C13.1361 17.0029 13.1716 17.1806 13.2427 17.3228C13.3138 17.5006 13.3849 17.6783 13.456 17.856C13.5271 17.9982 13.5627 18.176 13.6338 18.3537C13.7049 18.567 13.7404 18.7447 13.8115 18.958C13.8826 19.1713 13.9181 19.4202 13.9537 19.669C13.9537 19.8468 13.9537 20.0245 13.9892 20.2022" fill="black"/>
</svg>
