<svg width="119" height="39" viewBox="0 0 119 39" fill="none" xmlns="http://www.w3.org/2000/svg">
<rect x="0.532379" y="0.408203" width="117.745" height="37.9823" rx="4.14281" fill="#C40E29"/>
<path d="M66.3632 18.465H60.2852C60.0025 18.465 59.6996 18.4448 59.5583 18.4044C59.0131 18.2632 58.7708 17.7989 58.7708 17.3146C58.7708 16.9109 58.9929 16.4063 59.5785 16.2247C59.7602 16.1641 59.9217 16.1641 60.265 16.1641H68.8873V14.4082H60.1237C59.7804 14.4082 59.4977 14.4082 59.2554 14.4486C57.8419 14.6504 56.8121 15.821 56.8121 17.2944C56.8121 18.6264 57.6804 19.9383 59.215 20.1604C59.5583 20.2007 60.0631 20.2007 60.2044 20.2007H66.0805C66.0805 20.2007 66.4642 20.2007 66.545 20.2007C67.2517 20.3016 67.6152 20.8264 67.6152 21.4319C67.6152 21.9365 67.3123 22.5016 66.6055 22.6429C66.5248 22.6429 66.2017 22.663 66.1007 22.663H57.0948V24.4391H66.2421C66.3632 24.4391 66.868 24.4391 66.969 24.4391C68.6854 24.2777 69.5739 22.9052 69.5739 21.4319C69.5739 20.1402 68.7661 18.6264 67.1103 18.465C66.7671 18.4246 66.4844 18.4246 66.3632 18.4246" fill="white"/>
<path d="M48.9773 18.465H42.8993C42.6166 18.465 42.3137 18.4448 42.1724 18.4044C41.6272 18.2632 41.3849 17.7989 41.3849 17.3146C41.3849 16.9109 41.607 16.4063 42.1926 16.2247C42.3743 16.1641 42.5359 16.1641 42.8791 16.1641H51.5014V14.4082H42.7378C42.3945 14.4082 42.1118 14.4082 41.8695 14.4486C40.456 14.6504 39.4262 15.821 39.4262 17.2944C39.4262 18.6264 40.2945 19.9383 41.8291 20.1604C42.1724 20.2007 42.6772 20.2007 42.8186 20.2007H48.6946C48.6946 20.2007 49.0783 20.2007 49.1591 20.2007C49.8658 20.3016 50.2293 20.8264 50.2293 21.4319C50.2293 21.9365 49.9264 22.5016 49.2196 22.6429C49.1389 22.6429 48.8158 22.663 48.7148 22.663H39.7089V24.4391H48.8562C48.9571 24.4391 49.4821 24.4391 49.5831 24.4391C51.2995 24.2777 52.188 22.9052 52.188 21.4319C52.188 20.1402 51.3803 18.6264 49.7245 18.465C49.3812 18.4246 49.0985 18.4246 48.9773 18.4246" fill="white"/>
<path d="M34.5597 14.4082H32.6212V24.4593H34.5597V14.4082Z" fill="white"/>
<path d="M25.2105 22.441L17.2546 14.4082H14.5487V24.4593H16.4872V16.3861L24.5037 24.4593H27.149V14.4082H25.2105V22.441Z" fill="white"/>
<path d="M101.862 22.441L93.906 14.4082H91.2002V24.4593H93.1387V16.3861L101.135 24.4593H103.8V14.4082H101.862V22.441Z" fill="white"/>
<path d="M79.0846 14.4082L72.8046 24.4593H75.1672L76.3182 22.6025H84.1125L85.2635 24.4593H87.6261L81.3461 14.4082H79.0644H79.0846ZM77.2874 21.008L80.2355 16.2852L83.1635 21.008H77.2874Z" fill="white"/>
</svg>
