<svg width="119" height="39" viewBox="0 0 119 39" fill="none" xmlns="http://www.w3.org/2000/svg">
<g clip-path="url(#clip0_807_932)">
<rect x="0.117249" y="0.0410156" width="118.695" height="37.9823" rx="4.92985" fill="white"/>
<path d="M77.614 8.58594V28.0879H81.184V14.6803H81.2906L87.0986 24.4843H87.4716L93.4926 14.6803H93.5992V28.0879H97.116V8.58594H93.1197L87.6847 18.3899H87.5781L81.8234 8.58594H77.614Z" fill="black"/>
<path d="M19.1084 8.58594V28.0879H22.8327V14.8923H22.9391L31.9839 28.0879H35.8679V8.58594H32.1435V21.6226H32.0903L23.0987 8.58594H19.1084Z" fill="black"/>
<path d="M54.252 20.6684C54.252 25.702 57.2805 28.5632 62.4344 28.5632C67.2163 28.5632 70.7231 25.702 70.7231 20.6684V8.58789H66.7913V20.6684C66.7913 23.0528 65.6223 25.0132 62.3813 25.0132C59.1402 25.0132 58.0775 22.7349 58.0775 20.3505V8.58789H54.1988V20.6684H54.252Z" fill="black"/>
<path d="M47.3984 8.58789H43.4666V28.0863H47.3984V8.58789Z" fill="black"/>
</g>
<defs>
<clipPath id="clip0_807_932">
<rect x="0.117249" y="0.0410156" width="118.695" height="37.9823" rx="4.92985" fill="white"/>
</clipPath>
</defs>
</svg>
