<svg width="119" height="38" viewBox="0 0 119 38" fill="none" xmlns="http://www.w3.org/2000/svg">
<rect x="0.75" y="0.75" width="117.195" height="36.4823" rx="4.12793" fill="#002169"/>
<path d="M17.7928 35.0135H17.2789L16.9821 35.0112L16.7269 34.8602L16.4555 34.6966C14.9692 33.8143 12.8882 33.1346 12.0671 32.8863L9.19265 32.9813L3.23364 33.3086L6.585 18.7042C6.64968 18.3072 6.81828 17.9353 7.07004 17.6206C7.43843 17.1675 7.96504 16.8665 8.55286 16.7807C9.16031 16.6766 9.86823 16.5541 10.3613 16.4615C10.545 15.99 11.1905 14.6604 12.8708 13.8354C12.9251 13.7965 13.1538 13.6088 13.275 13.1579C13.3639 12.7918 13.7127 11.6109 14.7694 10.414L14.8214 10.3579L14.8618 10.311L14.908 10.2721L14.9623 10.2229C15.162 10.0444 15.3514 9.843 15.4889 9.67708C15.3618 9.08091 13.8074 6.56123 13.8074 6.56123L13.6896 6.35411L13.67 6.11725C13.6411 5.75795 13.8421 4.91805 14.908 4.08846C15.1378 3.90652 16.5167 2.97852 18.0665 2.97852C20.2942 2.97852 21.7816 4.7098 22.3336 5.46502C22.8856 6.22367 23.8153 7.54072 24.4551 10.1188C24.7276 11.0021 24.7796 12.3295 24.1629 13.5699C24.1698 13.8994 24.1456 14.2759 24.0555 14.6798C24.0555 14.6798 28.6957 14.0196 28.9751 14.0196C29.4013 14.0196 29.8113 14.094 30.1993 14.2439C30.7605 14.4464 31.532 14.9464 32.0851 16.1811L32.1002 16.2154L32.1198 16.2601L33.9733 20.8097L33.1118 21.6324L34.2539 24.4313L33.27 25.0332L34.6143 28.3047L33.4987 28.7532L35.0254 32.3771C35.0254 32.3771 25.1965 35.0101 17.7939 35.0101L17.7928 35.0135Z" fill="#002169"/>
<path d="M33.5345 31.6196L32.0817 28.1696L33.2031 27.7165L31.9247 24.6029L32.9098 23.9987L31.8346 21.3635C31.8739 21.3291 31.9085 21.2914 31.9466 21.2536L32.6984 20.5396L32.3023 19.5727C32.2931 19.5361 32.2804 19.5017 32.2677 19.4708L32.2619 19.4422L32.248 19.4159L31.1071 16.6445L31.1047 16.6308L31.0955 16.6125C30.6855 15.6982 30.1555 15.3641 29.8125 15.2462C29.5503 15.1409 29.2709 15.0883 28.9752 15.0883C28.7708 15.0883 28.5987 15.1157 28.4879 15.1386L22.2321 16.0174C22.2736 15.9659 22.2967 15.9339 22.2967 15.9339C23.0589 14.9338 23.1317 13.9543 23.0636 13.3284C23.7207 12.2322 23.6179 11.0387 23.4158 10.4048C22.8199 8.00067 22.2736 7.23515 21.4514 6.07944L21.3752 5.97302C20.2423 4.38248 18.9512 4.04492 18.0665 4.04492C16.8447 4.04492 15.9024 4.67198 15.5698 4.93059C14.7129 5.62287 14.7452 6.02794 14.7452 6.02794C14.7452 6.02794 16.5849 9.0122 16.69 9.79145L16.7015 9.81777C16.5814 10.0821 16.1183 10.6302 15.6829 11.0147L15.6275 11.0639L15.5802 11.1165C14.6632 12.1544 14.3826 13.159 14.3214 13.4142C14.0615 14.3754 13.4703 14.7267 13.3929 14.769L13.3779 14.7759C11.8512 15.5151 11.3962 16.7521 11.343 16.902C11.2518 17.1857 11.1617 17.3322 11.1144 17.3974C10.7379 17.4832 9.52531 17.6961 8.72269 17.8322C8.39818 17.8792 8.10947 18.0405 7.91083 18.2877C7.76879 18.4627 7.6764 18.6779 7.64984 18.8964L4.68188 32.1665L9.21234 31.9079L12.208 31.8118C12.8755 32.0052 15.2938 32.757 17.0099 33.7765L17.2847 33.9401H17.6058L17.794 33.9413C23.4423 33.9413 30.6047 32.2901 31.3761 32.1093C31.4512 32.0979 33.5357 31.6196 33.5357 31.6196H33.5345Z" fill="white"/>
<path d="M31.6188 30.6857C31.6188 30.6857 31.4872 30.9374 31.1581 30.9741C31.1581 30.9741 23.416 32.8266 17.6129 32.7877C15.4464 31.5004 12.3445 30.6468 12.3445 30.6468L6.18799 30.9638L8.80256 19.0782C8.80256 19.0782 8.79217 18.9924 8.89841 18.9798C8.89841 18.9798 11.0199 18.6228 11.476 18.5061C11.476 18.5061 12.0581 18.4798 12.4553 17.2634C12.4553 17.2634 12.7556 16.3674 13.8885 15.8193C13.8885 15.8193 15.0306 15.3101 15.4556 13.6933C15.4556 13.6933 15.6312 12.8145 16.4557 11.883C16.4557 11.883 17.8693 10.6392 17.8796 9.84852C17.882 9.80504 17.8739 9.75584 17.8635 9.70434C18.3566 9.45375 18.5518 9.03037 18.5541 8.56923C18.5587 7.68585 17.9466 6.69949 17.5852 6.31845C17.4916 6.22233 17.3819 6.16626 17.2699 6.13536C17.01 6.06899 16.7467 6.12964 16.5319 6.20287C16.413 6.23949 16.3171 6.28412 16.2513 6.31616C16.167 6.1674 16.1116 6.07929 16.1116 6.07929C16.1116 6.07929 16.085 6.01979 16.1116 5.9786C16.1116 5.9786 18.4894 3.92234 20.4249 6.64571C21.261 7.82431 21.7287 8.43191 22.2923 10.7285C22.2923 10.7285 22.745 11.9917 21.8269 13.0719C21.8269 13.0719 22.2184 14.1235 21.3673 15.2449C21.3673 15.2449 20.0692 16.9888 20.0092 17.0734C20.0092 17.0734 19.9099 17.2256 19.9711 17.3572C19.9711 17.3572 20.0092 17.4842 20.306 17.4579L28.704 16.2782C28.704 16.2782 29.0597 16.1798 29.4142 16.3342C29.4142 16.3342 29.7272 16.4052 30.0309 17.0815L31.1696 19.8495C31.1696 19.8495 31.344 20.3484 30.9964 20.5406C30.9964 20.5406 30.7539 20.6344 30.4455 20.6802C30.4455 20.6802 30.3 20.7054 30.3751 20.8507L31.2759 23.1015C31.2759 23.1015 31.4295 23.4814 31.1661 23.7262C31.1661 23.7262 31.0045 23.8544 30.859 23.8853C30.859 23.8853 30.7204 23.9173 30.531 23.9173C30.531 23.9173 30.3832 23.9265 30.4571 24.0581L31.5011 26.6796C31.5011 26.6796 31.6281 26.9851 31.4468 27.1808C31.4468 27.1808 31.3775 27.2895 31.12 27.3662C31.12 27.3662 30.8416 27.4508 30.6453 27.4772C30.6453 27.4772 30.5414 27.4966 30.5991 27.6076L31.6073 30.093C31.6073 30.093 31.762 30.458 31.6188 30.6811V30.6857ZM18.2607 8.51659C18.2758 7.77854 17.7191 6.8471 17.4293 6.54616C17.3808 6.49581 17.3207 6.46377 17.2491 6.44203C16.9916 6.36536 16.5966 6.51297 16.4269 6.5965C16.4176 6.60451 16.4084 6.6068 16.4038 6.60909C16.7918 7.30023 17.5309 8.66649 17.7549 9.43086C18.1268 9.21116 18.2573 8.8839 18.2607 8.51659Z" fill="#CE0E2D"/>
<path d="M18.7221 24.7421L18.1343 27.0833C17.983 27.7035 17.8583 28.1051 17.7879 28.2482C17.5985 28.6315 17.3941 28.794 17.0927 28.8466C17.0361 28.8546 16.991 28.8592 16.9471 28.8592C16.8351 28.8546 16.7543 28.8249 16.6942 28.7711C16.6111 28.6899 16.566 28.5777 16.5707 28.4038C16.5695 28.3866 16.5834 28.3111 16.6088 28.2001C16.6226 28.1223 16.6446 28.025 16.6769 27.9095L17.401 24.9492L15.7323 25.2113L15.0636 27.8443C15.0497 27.9038 15.0359 27.9667 15.0209 28.0273C14.9527 28.3077 14.9354 28.5445 14.925 28.7848C14.9135 29.2139 15.0186 29.5618 15.2588 29.7964C15.4967 30.0298 15.8616 30.1442 16.3154 30.1511C16.5268 30.1568 16.7589 30.1362 17.0164 30.0973C17.8699 29.968 18.5443 29.5996 18.9785 28.9977C19.288 28.5606 19.5386 27.8877 19.7661 26.954L20.3655 24.487L18.7233 24.7421H18.7221ZM24.4098 24.2833C24.2019 24.0682 23.9259 23.9537 23.5933 23.9503C23.4917 23.9503 23.3843 23.9572 23.2699 23.9732C22.8692 24.035 22.4962 24.2181 22.1671 24.5098L22.2259 24.2181L20.7189 24.4538L20.6992 24.5957C20.6727 24.7799 19.3931 29.8891 19.3931 29.8891H19.3966L19.0917 31.0413L21.0145 29.6453L21.0214 29.6179L21.4857 27.7802C21.6982 27.9736 21.9661 28.0777 22.2791 28.0834C22.3726 28.0834 22.4777 28.0788 22.5816 28.0594C23.248 27.9621 23.8092 27.6165 24.2054 27.0661C24.4352 26.74 24.5957 26.3784 24.6835 25.9779C24.725 25.7766 24.7493 25.5649 24.7574 25.3475C24.7724 24.9023 24.6534 24.5419 24.4086 24.2856L24.4098 24.2833ZM22.8692 26.4929C22.7017 26.7149 22.5227 26.8259 22.2814 26.8682C22.2502 26.8716 22.2179 26.8751 22.1936 26.8751C22.0885 26.8705 22.025 26.8407 21.9592 26.7618C21.8853 26.6714 21.8495 26.5501 21.8529 26.3762C21.8552 26.3109 21.8622 26.2491 21.876 26.1851C21.913 26.026 21.9857 25.8692 22.0943 25.709C22.2791 25.4584 22.4592 25.344 22.6833 25.3063C22.726 25.2994 22.763 25.2948 22.7976 25.2948C22.9154 25.3005 22.9801 25.3326 23.0332 25.4058C23.084 25.4813 23.1175 25.6118 23.1082 25.8029C23.1071 25.8773 23.0955 25.9528 23.084 26.026C23.0459 26.1942 22.9766 26.3453 22.8704 26.4917L22.8692 26.4929ZM14.2887 25.0774L15.8096 24.8428L16.193 23.1768C16.2046 23.1333 16.2115 23.0955 16.2196 23.0555C16.2727 22.8072 16.3027 22.6126 16.3097 22.4593C16.3201 22.1069 16.2265 21.8162 16.0244 21.6137C15.8662 21.4546 15.6526 21.3723 15.402 21.3688C15.3188 21.3665 15.238 21.3745 15.1491 21.3871C14.8072 21.4363 14.4989 21.5702 14.2321 21.7785L14.6317 20.1467L13.135 20.3779L11.8959 25.4482L13.3845 25.217L13.7863 23.5715C13.9399 23.004 14.1547 22.7809 14.5127 22.7111C14.5578 22.703 14.597 22.6996 14.6317 22.6996C14.7656 22.7168 14.7795 22.7259 14.7853 22.877C14.7853 22.9159 14.7703 23.0234 14.7379 23.1665C14.7298 23.2203 14.716 23.2786 14.6987 23.3427L14.2898 25.0786L14.2887 25.0774ZM29.8999 21.3837C29.9103 21.0942 29.7486 20.8722 29.4726 20.7521C29.3548 20.7006 29.1285 20.6456 28.7601 20.5667C28.6457 20.5427 28.5672 20.5118 28.5268 20.4866C28.5118 20.4774 28.5002 20.4671 28.4956 20.4648C28.4979 20.4648 28.5002 20.4626 28.5002 20.4591C28.5072 20.4362 28.5072 20.4271 28.5614 20.3916C28.618 20.3584 28.7231 20.323 28.8755 20.3001C29.0072 20.2818 29.1377 20.2692 29.267 20.2726C29.4253 20.276 29.5754 20.2944 29.729 20.3333L29.8883 20.3733L30.2671 19.2885L30.1159 19.2622C29.9091 19.2302 29.7128 19.2142 29.5234 19.2073C29.3306 19.205 29.14 19.2176 28.9633 19.2451C28.4991 19.3171 28.0914 19.4693 27.7461 19.6959C27.4031 19.9213 27.1687 20.2165 27.1017 20.5427C27.0913 20.6045 27.0821 20.6708 27.0821 20.7349C27.0648 21.0736 27.2068 21.3471 27.4805 21.4913C27.6052 21.5542 27.8212 21.6068 28.1665 21.6778C28.2727 21.7007 28.3489 21.7293 28.3836 21.7522C28.4182 21.7819 28.4148 21.7899 28.4148 21.7922V21.8059C28.4101 21.8231 28.4078 21.8368 28.327 21.8815C28.2531 21.9227 28.118 21.9638 27.9274 21.9925C27.7923 22.0153 27.6607 22.0222 27.5313 22.0199C27.4274 22.0176 27.3304 22.0073 27.2334 21.9913L26.5381 23.036L26.6917 23.0555C26.8303 23.0726 26.9724 23.0807 27.119 23.0829C27.4378 23.091 27.7773 23.0623 28.1399 23.0028C28.6157 22.9239 29.0245 22.75 29.3479 22.4799C29.6204 22.2522 29.8017 21.9661 29.8687 21.6492C29.8872 21.5634 29.8953 21.4741 29.8999 21.3837V21.3837ZM16.7277 24.408C16.8859 24.5682 17.1031 24.6552 17.3537 24.6609H17.3594C17.438 24.6609 17.5223 24.6552 17.6089 24.6414C17.9957 24.5842 18.3584 24.408 18.6817 24.1345L18.6274 24.4103L20.0329 24.1883L20.0537 24.051C20.0802 23.8633 20.1172 23.6722 20.1622 23.4709C20.1807 23.3839 20.1992 23.2992 20.2177 23.2111L20.8598 20.5793L19.3735 20.8104L18.9693 22.4593C18.8192 23.0246 18.6009 23.2489 18.2452 23.3187C18.2002 23.3267 18.1644 23.3301 18.132 23.3301C17.9969 23.3095 17.983 23.3015 17.9727 23.1516C17.975 23.1104 17.9911 23.0063 18.0188 22.8598C18.0304 22.8072 18.0454 22.75 18.0581 22.6882L18.4727 20.9489L16.9483 21.1869L16.5637 22.8518C16.5522 22.893 16.5441 22.9296 16.5372 22.9697C16.4864 23.2203 16.4552 23.4159 16.4494 23.5704C16.4367 23.9183 16.5279 24.2066 16.73 24.4069L16.7277 24.408ZM26.4296 19.879C26.2852 19.7909 26.1108 19.7474 25.9157 19.7428C25.8233 19.7405 25.7274 19.7497 25.6235 19.7634C25.1766 19.8309 24.7828 20.0632 24.4675 20.4259C24.4051 20.3218 24.3116 20.2337 24.1961 20.1731C24.0737 20.1078 23.9293 20.0735 23.7792 20.0701C23.7088 20.0678 23.6337 20.0735 23.5609 20.085C23.218 20.1364 22.905 20.2863 22.6382 20.5232L22.6948 20.2944L21.3229 20.5072L21.3055 20.6479C21.2801 20.8322 20.5006 24.1185 20.5006 24.1185L21.9857 23.8874L22.3865 22.2408C22.45 21.981 22.517 21.7933 22.5805 21.6904C22.6902 21.5027 22.7872 21.4329 22.9396 21.4089C22.9697 21.402 22.9962 21.402 23.0182 21.402C23.0771 21.402 23.0955 21.4157 23.1117 21.4295C23.1279 21.4466 23.1417 21.4775 23.1406 21.5519C23.1371 21.624 23.1233 21.7384 23.0898 21.8872C23.0828 21.9215 23.0748 21.9581 23.0632 21.9925L22.6371 23.7867L24.121 23.5555L24.5241 21.9066C24.5865 21.6503 24.6534 21.4627 24.7146 21.3562C24.8255 21.1686 24.9248 21.1034 25.075 21.0736C25.105 21.0702 25.1338 21.0702 25.1569 21.0702C25.2147 21.0725 25.2355 21.0828 25.2505 21.0988C25.2655 21.1148 25.2828 21.1457 25.2759 21.2166C25.2759 21.2899 25.2574 21.4089 25.2274 21.5565C25.2228 21.5897 25.2135 21.624 25.2031 21.6583L24.777 23.4514L26.2633 23.2203L26.686 21.4421C26.6952 21.4089 26.7033 21.3803 26.7091 21.3482C26.7553 21.1262 26.7853 20.902 26.7945 20.6823C26.8061 20.3218 26.686 20.038 26.4319 19.879H26.4296ZM8.31006 22.6058L9.89913 22.3586L8.66229 27.2366L10.435 26.0855L11.442 22.1195L12.553 21.9478L12.8544 20.7498L9.08611 21.3345L8.31121 22.6058H8.31006Z" fill="white"/>
<path d="M35.2086 31.6597C35.2017 31.2157 35.5643 30.8495 36.017 30.8438C36.4628 30.8392 36.8335 31.1985 36.8392 31.6425C36.8439 32.0888 36.4824 32.4538 36.0355 32.4607C35.5839 32.4641 35.2132 32.1082 35.2086 31.6597ZM36.6856 31.6436C36.6799 31.2809 36.3854 30.9937 36.017 30.9971C35.6532 31.004 35.3576 31.2981 35.3633 31.6574C35.3691 32.0258 35.6682 32.313 36.0355 32.3073C36.4015 32.3027 36.6914 32.0075 36.6868 31.6425L36.6856 31.6436ZM36.435 32.0899L36.2364 32.0922L36.0355 31.7237L35.8645 31.726V32.0956L35.6948 32.0979L35.6855 31.2225L36.1117 31.2203C36.1833 31.2168 36.2803 31.2203 36.3496 31.2592C36.4281 31.3084 36.4547 31.3919 36.4558 31.4834C36.4558 31.6425 36.3715 31.7089 36.2156 31.7203L36.4339 32.0899H36.435ZM36.1198 31.5944C36.2156 31.5944 36.2838 31.5704 36.2838 31.4594C36.2814 31.3461 36.1567 31.3473 36.0713 31.3473L35.8576 31.3518L35.8622 31.5967L36.1209 31.5944H36.1198Z" fill="#002169"/>
<path d="M113.501 11.5312C113.214 11.575 112.934 11.6493 112.655 11.7528L107.435 12.5442L107.116 13.9127C106.92 13.6899 106.688 13.4914 106.412 13.3258C105.917 13.0227 105.325 12.8717 104.652 12.8717C104.406 12.8717 104.145 12.8936 103.876 12.9338C102.644 13.1201 101.513 13.668 100.543 14.5604C100.146 14.9196 99.8102 15.308 99.53 15.7171L101.012 9.52229L79.1618 16.0348L94.8779 13.6095C94.8287 13.6156 94.5559 14.3486 94.508 14.3534C93.4832 14.5105 92.526 15.0292 91.6671 15.9131C91.2947 16.2929 90.979 16.702 90.7185 17.1379C90.6533 16.7325 90.512 16.3891 90.2761 16.1042C90.0045 15.7597 89.4798 15.3518 88.5472 15.3518C88.3666 15.3518 88.1773 15.3688 87.9771 15.3981C87.6932 15.4407 87.4094 15.5174 87.1157 15.6233L86.0356 15.7852L73.3423 17.7114L73.0597 18.9204C73.0118 18.8388 72.9589 18.7609 72.9 18.6866C72.6198 18.3408 72.0927 17.9317 71.144 17.9317C70.9585 17.9317 70.7607 17.9476 70.5505 17.9817C70.4473 17.995 70.3441 18.0145 70.2421 18.0401L70.8405 15.4468L67.0498 16.0178C67.0743 15.9922 67.0952 15.9703 67.1173 15.9399L67.6359 14.4265C67.771 13.8141 67.7944 13.243 67.7108 12.7451C67.5892 12.0547 67.2034 11.4947 66.5877 11.1221C66.1638 10.8677 65.6723 10.7374 65.112 10.7374C64.9105 10.7374 64.704 10.7569 64.4816 10.7897C63.7874 10.892 63.1373 11.1404 62.5426 11.5239L62.62 11.1842L61.7034 11.3218L62.4173 8.24023L57.9384 11.4776L57.8524 11.8636L57.8425 11.9111L56.2783 12.1485L55.8396 12.2155C55.8003 12.2106 55.7573 12.2094 55.7168 12.2094C55.4943 12.2094 55.2682 12.2313 55.0311 12.2642C54.2889 12.3774 53.6303 12.6586 53.0835 13.1006C52.7959 13.3319 52.56 13.5864 52.3806 13.8567C52.3413 13.8019 52.3044 13.7532 52.2639 13.7021C51.98 13.3685 51.5659 13.1444 51.029 13.0434C50.8324 13.0068 50.6235 12.9837 50.3912 12.9837C50.1258 12.9837 49.8346 13.0105 49.5041 13.0616C49.0556 13.1298 48.6402 13.2309 48.263 13.3697L48.3945 12.7986L48.7447 11.2828L39.981 12.6087L38.8321 17.5774L41.141 17.2317L40.9788 17.9439L39.9012 18.1095L39.1258 21.4857L44.4476 20.6797L43.9242 22.9358L44.5779 22.8371L44.5717 22.8737L44.0778 25.0056L51.9518 23.8124L52.6706 23.704L52.6976 23.575C52.8611 23.6139 53.0466 23.6371 53.2457 23.6371C53.4079 23.6371 53.5775 23.62 53.7519 23.5969C54.139 23.536 54.4917 23.4191 54.8148 23.2511L54.7546 23.5165L57.7836 23.0599L57.4063 24.6987L42.0429 29.0063L38.3333 31.0579L55.1319 28.6545L73.0818 25.9345L73.3706 24.6805C73.448 24.8071 73.534 24.9118 73.6213 25.0007C73.9063 25.2905 74.4384 25.6399 75.3145 25.6399C75.5025 25.6399 75.7102 25.6265 75.9191 25.5924C76.2017 25.551 76.4855 25.4767 76.778 25.3745L77.847 25.2125L90.5268 23.2937L90.6865 22.5924L90.7713 22.2284C91.2726 22.7385 91.9435 23.0039 92.7349 23.0039C92.9216 23.0039 93.117 22.9881 93.3235 22.9565C93.5864 22.9187 93.8543 22.8493 94.1136 22.7495L95.2379 22.5802L98.4032 22.103L99.1184 21.991L99.2806 21.2885L99.3948 20.8063L99.4108 20.8246C99.9933 21.3749 100.792 21.6525 101.8 21.6525C102.113 21.6525 102.457 21.6221 102.812 21.5697C103.818 21.4175 104.725 21.0766 105.519 20.5518L105.402 21.0376L112.282 20.0015L113.126 16.338L111.948 16.5145C111.996 16.4342 112.05 16.3538 112.103 16.2759C112.298 16.0129 112.49 15.8376 112.68 15.7511C112.947 15.633 113.3 15.5381 113.727 15.4711L114.45 15.3615L115.382 11.3011C115.382 11.3011 113.606 11.5166 113.502 11.5336L113.501 11.5312Z" fill="#002169"/>
<path d="M40.0336 19.7229L40.3015 18.5663L41.3779 18.408L42.4174 13.8739L41.3459 14.0371L40.9798 15.6296L39.7498 15.8183L40.3813 13.0643L46.8681 12.0817L46.2352 14.8333L45.0212 15.0135L45.3923 13.4247L44.2827 13.5927L43.2358 18.1231L44.3134 17.9624L44.0468 19.119L40.0324 19.7241L40.0336 19.7229ZM51.4416 16.9409L51.186 18.0318L48.7923 18.3983L48.8808 18.0208C48.3831 18.38 47.8953 18.5992 47.4173 18.6722C46.9234 18.7489 46.5265 18.6746 46.2279 18.4616C45.9354 18.2473 45.8383 17.9113 45.9452 17.4595C46.0485 17.0054 46.3237 16.5951 46.7759 16.2286C47.2244 15.8646 47.7429 15.6357 48.3438 15.5444C48.6731 15.4908 49.0405 15.5188 49.4313 15.6113L49.5001 15.3191C49.5566 15.0756 49.5161 14.8918 49.3809 14.7627C49.2445 14.6325 49.0319 14.5874 48.7444 14.6325C48.3881 14.6848 48.0538 14.8601 47.7417 15.1463L46.5117 15.1195C47.0561 14.311 47.9469 13.8131 49.1855 13.6268C49.6648 13.5537 50.0494 13.5428 50.3455 13.6C50.6355 13.6548 50.8382 13.7534 50.9537 13.8934C51.0705 14.0359 51.1393 14.1978 51.1589 14.3841C51.1774 14.5691 51.1344 14.8833 51.0336 15.3216L50.6306 17.059L51.4403 16.9409H51.4416ZM49.2003 16.6328C48.8661 16.4636 48.5847 16.3966 48.3586 16.432C48.1755 16.4551 47.9936 16.5306 47.829 16.6584C47.652 16.7814 47.5427 16.9433 47.5009 17.1345C47.4566 17.311 47.4849 17.4486 47.5746 17.557C47.6655 17.6629 47.8068 17.7031 47.9936 17.6738C48.2885 17.6263 48.6608 17.4133 49.1081 17.0225L49.2003 16.6328V16.6328ZM51.9466 17.9198L52.3238 16.2798L53.4862 16.1044C53.4445 16.3248 53.5145 16.488 53.6902 16.5866C53.8635 16.6901 54.0994 16.7169 54.4041 16.673C54.6634 16.6316 54.876 16.5586 55.0419 16.4514C55.2078 16.3419 55.3073 16.2201 55.3392 16.085C55.3663 15.9596 55.322 15.8768 55.2053 15.8244C55.0837 15.7757 54.8404 15.7526 54.4631 15.7465C53.6853 15.7441 53.1496 15.6442 52.8473 15.4409C52.5524 15.2424 52.4516 14.9307 52.5487 14.5119C52.6409 14.1174 52.8829 13.7595 53.281 13.4393C53.6767 13.1166 54.1535 12.917 54.7126 12.8281C55.1598 12.7636 55.5604 12.7745 55.9143 12.8792L55.9573 12.7149L57.089 12.5407L56.7745 13.9214L55.6366 14.0943C55.6071 13.7838 55.2852 13.6682 54.6622 13.7656C54.1989 13.8338 53.9409 13.9908 53.8856 14.2319C53.8635 14.3256 53.8942 14.3877 53.9802 14.4218C54.0638 14.4535 54.2911 14.4742 54.6622 14.4839C55.2532 14.49 55.6919 14.5241 55.9721 14.5764C56.2522 14.6337 56.4611 14.7627 56.5865 14.9709C56.7167 15.1755 56.745 15.4458 56.6725 15.7733C56.5606 16.2372 56.2989 16.6462 55.8836 16.9969C55.4634 17.3463 54.9387 17.5691 54.3009 17.6665C53.7087 17.7566 53.3277 17.7018 53.1619 17.5022L53.1066 17.7432L51.9429 17.9198H51.9466ZM58.4136 11.6215L60.258 10.2871L59.8317 12.1268L60.7459 11.9868L60.494 13.0862L59.581 13.225L59.1042 15.2863C59.0587 15.4786 59.0588 15.5992 59.0895 15.6552C59.1251 15.7124 59.2308 15.727 59.4126 15.699C59.5576 15.6771 59.7321 15.6187 59.9312 15.5261L59.6903 16.5781C59.2455 16.7996 58.8241 16.9433 58.4333 17.003C57.5621 17.1333 57.2242 16.785 57.4122 15.9571L58.4124 11.6203L58.4136 11.6215ZM64.6583 14.6081L65.8035 14.8005C65.1092 15.6552 64.211 16.1665 63.1088 16.3321C62.229 16.466 61.5937 16.3467 61.2066 15.9803C60.8147 15.6113 60.7041 15.0683 60.8687 14.3463C61.0358 13.6061 61.4303 12.9584 62.0557 12.3898C62.675 11.82 63.3804 11.4791 64.1643 11.3561C64.7332 11.2745 65.1916 11.3354 65.5442 11.5472C65.8981 11.7591 66.1058 12.0586 66.1721 12.4458C66.241 12.8305 66.2139 13.2774 66.096 13.7802L62.3863 14.3402C62.3138 14.7725 62.3851 15.0574 62.6038 15.1974C62.825 15.3386 63.0818 15.3861 63.373 15.3435C63.7527 15.285 64.1803 15.0391 64.6558 14.6093L64.6583 14.6081ZM64.6927 13.1787C64.7197 12.9182 64.6595 12.7088 64.5268 12.5493C64.3867 12.3898 64.1631 12.3338 63.851 12.38C63.2636 12.4653 62.8532 12.839 62.6111 13.4916L64.6927 13.1787Z" fill="white"/>
<path d="M44.9861 23.2412L45.1311 22.63L45.7012 22.5424L46.2554 20.1414L45.6877 20.2303L45.4911 21.0753L44.8411 21.1715L45.1777 19.7141L48.6109 19.1942L48.2804 20.6528L47.6328 20.7478L47.8307 19.904L47.2446 19.9953L46.6904 22.3926L47.2605 22.3074L47.1204 22.9223L44.9885 23.24L44.9861 23.2412ZM48.0998 22.7737L48.2325 22.1942L48.6589 22.1272L49.2253 19.6629L48.799 19.7311L48.9341 19.1443L50.1985 18.9531L49.895 20.2607C50.2047 20.044 50.475 19.9162 50.7097 19.8821C51.2516 19.8005 51.4494 20.0708 51.3032 20.6905L51.0562 21.7656L51.4445 21.7047L51.3093 22.2891L50.0806 22.4718L50.4529 20.8561C50.4787 20.738 50.4762 20.6613 50.4418 20.6211C50.4086 20.581 50.3484 20.57 50.2563 20.5846C50.1297 20.6017 49.9687 20.682 49.7697 20.8098L49.4957 22.0006L49.8729 21.9434L49.7402 22.5241L48.0998 22.7737ZM53.9352 21.1544L54.5447 21.2567C54.1749 21.7133 53.6993 21.9811 53.112 22.07C52.6499 22.1382 52.3182 22.0773 52.108 21.8813C51.9016 21.6877 51.8402 21.4003 51.9311 21.0144C52.0183 20.626 52.2285 20.2827 52.559 19.9807C52.8908 19.6776 53.257 19.4949 53.6747 19.4304C53.9733 19.3878 54.2215 19.4219 54.4059 19.5351C54.5926 19.6471 54.7032 19.8042 54.7401 20.0099C54.7757 20.2157 54.761 20.4507 54.7008 20.7173L52.7323 21.0132C52.6929 21.2445 52.7323 21.3943 52.849 21.4697C52.9645 21.5416 53.1034 21.5696 53.2545 21.5452C53.4585 21.5148 53.6833 21.3857 53.9352 21.1556V21.1544ZM53.9524 20.3983C53.966 20.2595 53.9377 20.15 53.8664 20.0635C53.7939 19.9795 53.6735 19.9491 53.5064 19.9746C53.1992 20.0197 52.9817 20.2169 52.849 20.5663L53.9524 20.3983V20.3983Z" fill="white"/>
<path d="M56.0486 26.8937L56.2846 25.8527L57.8095 25.1587L59.1808 19.1989L57.7689 19.4169L57.2836 21.511L55.6689 21.7569L56.4996 18.1421L65.0298 16.8515L64.1967 20.4664L62.6029 20.7074L63.0834 18.6108L61.6285 18.8312L60.2572 24.7874L61.6703 24.5731L61.3201 26.0962L56.0474 26.8949L56.0486 26.8937ZM63.7555 25.7248L64.0848 24.2833L65.1428 24.1214L66.5498 18.007L65.4979 18.1701L65.8285 16.7249L68.9655 16.2525L68.2197 19.4936C68.9778 18.9518 69.6487 18.6389 70.2312 18.5524C71.5681 18.3479 72.0608 19.0163 71.7082 20.5577L71.0913 23.2228L72.0535 23.0767L71.7192 24.5171L68.6731 24.9809L69.5934 20.9643C69.6635 20.6721 69.6549 20.481 69.5701 20.3823C69.4828 20.2935 69.3305 20.2594 69.113 20.2947C68.8033 20.341 68.3966 20.5297 67.9026 20.856L67.2268 23.8036L68.157 23.666L67.8252 25.1076L63.7543 25.7248H63.7555ZM80.6844 21.7703L80.3526 23.2119L77.2045 23.6891L77.3298 23.1583C76.6061 23.6672 75.9229 23.9667 75.279 24.069C74.6499 24.1615 74.1891 24.069 73.9089 23.7841C73.6263 23.4968 73.5612 23.0487 73.7049 22.429L74.3869 19.4668L73.4039 19.6153L73.7381 18.1725L76.8051 17.7074L75.9032 21.6072C75.8319 21.9201 75.8319 22.121 75.9032 22.2208C75.9769 22.3219 76.1453 22.3511 76.407 22.3121C76.7584 22.2586 77.1787 22.0516 77.6677 21.69L78.3153 18.8714L77.3102 19.0236L77.6444 17.582L80.7372 17.1133L79.6276 21.931L80.6844 21.7715V21.7703ZM82.2941 18.2687L82.6271 16.8235L85.7162 16.356L85.5835 16.9404C86.3195 16.3901 87.0089 16.0674 87.6565 15.97C88.9811 15.7691 89.4566 16.4765 89.0831 18.0897L88.5092 20.582L89.4972 20.4347L89.1654 21.875L86.0885 22.345L86.9622 18.5536C87.0396 18.2127 87.0458 17.9875 86.9769 17.8779C86.9081 17.7671 86.7631 17.7294 86.542 17.761C86.1537 17.8219 85.7273 18.0143 85.2616 18.3479L84.6079 21.1762L85.6179 21.0252L85.2849 22.4655L81.1857 23.084L81.5175 21.6474L82.5177 21.4927L83.2955 18.1165L82.2941 18.2699V18.2687ZM98.0937 19.1344L97.7619 20.5735L94.5941 21.0508L94.7686 20.3081C94.0584 20.9546 93.3604 21.3296 92.6822 21.4331C91.865 21.556 91.2617 21.3418 90.8685 20.789C90.4814 20.235 90.388 19.5118 90.5969 18.6096C90.807 17.6953 91.2605 16.882 91.9547 16.1758C92.6514 15.4623 93.3924 15.0459 94.1849 14.9242C94.948 14.811 95.512 14.9985 95.8782 15.494L96.5639 12.7789L84.1385 14.9047L98.9858 10.7578L97.0197 19.2975L98.0974 19.1368L98.0937 19.1344ZM95.3412 17.9059C95.4789 17.3093 95.4395 16.9039 95.2294 16.6896C95.0217 16.4753 94.7453 16.395 94.4049 16.4449C93.9933 16.5082 93.6418 16.7103 93.3481 17.0439C93.0557 17.3872 92.8505 17.8012 92.735 18.2955C92.6293 18.7679 92.6502 19.1453 92.7952 19.4315C92.9402 19.7224 93.2228 19.8332 93.6431 19.7687C93.992 19.7176 94.3263 19.5386 94.6482 19.2367C94.9738 18.9396 95.2011 18.4952 95.3388 17.9059H95.3412ZM104.211 17.7756L105.717 18.0277C104.797 19.1551 103.619 19.8259 102.17 20.0439C101.014 20.218 100.183 20.0634 99.669 19.5812C99.1578 19.0942 99.0128 18.3807 99.2266 17.4335C99.4478 16.4656 99.97 15.6084 100.787 14.8633C101.606 14.1145 102.527 13.664 103.563 13.5058C104.308 13.3889 104.913 13.4753 105.377 13.7541C105.839 14.0317 106.111 14.4262 106.202 14.9327C106.286 15.4416 106.256 16.026 106.103 16.6896L101.228 17.4274C101.126 17.9923 101.218 18.3698 101.51 18.5536C101.802 18.7375 102.139 18.8008 102.525 18.7423C103.025 18.6693 103.583 18.3466 104.209 17.7756H104.211ZM104.255 15.8982C104.285 15.5512 104.214 15.2748 104.034 15.0703C103.848 14.8597 103.557 14.7854 103.145 14.8487C102.378 14.9631 101.837 15.4526 101.515 16.3122L104.255 15.8982ZM111.254 17.1376L110.923 18.5792L106.317 19.2781L106.647 17.8365L107.859 17.6514L108.637 14.2789L107.5 14.4481L107.833 13.0078L110.879 12.5451L110.514 14.1377C110.737 13.6628 111.095 13.2221 111.591 12.8264C112.085 12.4319 112.614 12.1884 113.183 12.1032C113.276 12.0874 113.389 12.074 113.52 12.0569L113.086 13.9477C112.56 14.0293 112.115 14.1498 111.755 14.3106C111.396 14.4725 111.065 14.7623 110.76 15.1713C110.455 15.5877 110.244 16.0516 110.123 16.5691L109.944 17.3385L111.254 17.1376V17.1376Z" fill="white"/>
<path d="M57.8105 25.1602L44.9219 28.6849L56.0484 26.8951L57.8105 25.1602Z" fill="white"/>
<rect x="0.75" y="0.75" width="117.195" height="36.4823" rx="4.12793" stroke="white" stroke-width="1.5"/>
</svg>
