<svg width="113" height="37" viewBox="0 0 113 37" fill="none" xmlns="http://www.w3.org/2000/svg">
<rect x="0.443756" y="0.589844" width="112.048" height="36.0832" rx="4.62707" fill="white"/>
<path fill-rule="evenodd" clip-rule="evenodd" d="M26.8452 14.9594H20.1308V9.76591H41.8689L45.6763 15.8078L49.6638 9.58594H61.0088V10.82L60.983 16.6306L66.231 9.7402L73.3828 9.71449L66.9771 17.7361L71.8392 25.5006L78.4764 9.58594H84.5734L92.3168 28.2002L85.6538 28.2259L81.4606 16.8619L77.2159 28.2002H66.1796L60.9573 20.1271L60.983 24.3179V28.2259H54.7317V12.0027V11.3342L54.3716 12.0027L48.1202 21.6955V28.2259H43.2067V21.6183L38.6532 14.9594H32.9936V28.2259H26.8452V14.9594Z" fill="#1D1D1B"/>
<path fill-rule="evenodd" clip-rule="evenodd" d="M32.9936 15.0371V17.0168H26.8452V15.0371H32.9936V15.0371ZM75.3636 17.0168L76.1868 15.0371H86.8372L87.6604 17.0168H81.5378L81.4863 16.8882L81.4348 17.0168H75.3893H75.3636ZM60.983 15.0371V16.6311L62.1921 15.0371H69.1123L67.543 17.0168H54.7317V15.0371H60.983ZM45.1875 15.0371L45.6763 15.8084L46.1651 15.0371H52.4164L51.1559 17.0168H40.0681L38.7304 15.0371H45.2133H45.1875Z" fill="#E51F26"/>
</svg>
